M48
; DRILL file {KiCad 9.0.3} date 2025-08-18T23:52:52+0200
; FORMAT={-:-/ absolute / inch / decimal}
; #@! TF.CreationDate,2025-08-18T23:52:52+02:00
; #@! TF.GenerationSoftware,Kicad,Pcbnew,9.0.3
; #@! TF.FileFunction,Plated,1,2,PTH
FMAT,2
INCH
; #@! TA.AperFunction,Plated,PTH,ViaDrill
T1C0.0118
; #@! TA.AperFunction,Plated,PTH,ComponentDrill
T2C0.0394
; #@! TA.AperFunction,Plated,PTH,ComponentDrill
T3C0.0433
; #@! TA.AperFunction,Plated,PTH,ComponentDrill
T4C0.0669
%
G90
G05
T1
X5.3081Y-4.3704
X5.3081Y-4.4787
X5.4035Y-4.4882
X5.4035Y-4.5374
X5.4429Y-4.5374
X5.4528Y-4.2618
X5.4626Y-4.6358
X5.5658Y-4.3449
X5.5658Y-4.4488
X5.5807Y-4.6949
X5.5906Y-3.9114
X5.5906Y-4.3763
X5.5984Y-3.9854
X5.6802Y-4.3783
X5.6949Y-4.4587
X5.7382Y-4.2421
X5.7382Y-4.4646
X5.7382Y-4.5118
X5.7776Y-3.6122
X5.7972Y-3.6417
X5.8134Y-3.4276
X5.8134Y-3.5276
X5.874Y-3.6417
X5.8819Y-4.2441
X5.9134Y-3.4276
X5.9134Y-3.5276
X5.9819Y-4.2441
X6.0134Y-3.4276
X6.0433Y-3.5433
X6.1122Y-3.6663
X6.1598Y-4.4173
X6.1909Y-3.3957
X6.1969Y-3.5276
X6.1969Y-3.6772
X6.2008Y-3.7894
X6.2598Y-4.4173
X6.2992Y-3.378
X6.4016Y-3.4803
X6.4882Y-3.3858
T2
X6.237Y-3.2776
X6.2976Y-3.5862
X6.2976Y-3.6862
X6.2976Y-3.7862
X6.2976Y-3.8862
X6.2976Y-3.9862
X6.2976Y-4.0862
X6.2976Y-4.1862
X6.2976Y-4.2862
X6.337Y-3.2776
X6.3976Y-3.5862
X6.3976Y-3.6862
X6.3976Y-3.7862
X6.3976Y-3.8862
X6.3976Y-3.9862
X6.3976Y-4.0862
X6.3976Y-4.1862
X6.3976Y-4.2862
X6.437Y-3.2776
X6.537Y-3.2776
X6.637Y-3.2776
T3
X5.1575Y-3.2283
X5.1575Y-3.4055
X5.4134Y-3.2283
X5.4134Y-3.4055
T4
X5.1222Y-3.8591
X5.1222Y-4.015
X5.8276Y-3.1537
X5.8276Y-4.7203
X5.9835Y-3.1537
X5.9835Y-4.7203
X6.6888Y-3.8583
X6.6888Y-4.0142
M30
