%TF.GenerationSoftware,KiCad,Pcbnew,9.0.3*%
%TF.CreationDate,2025-08-18T23:52:33+02:00*%
%TF.ProjectId,main,6d61696e-2e6b-4696-9361-645f70636258,1.0*%
%TF.SameCoordinates,Original*%
%TF.FileFunction,Copper,L2,Bot*%
%TF.FilePolarity,Positive*%
%FSLAX46Y46*%
G04 Gerber Fmt 4.6, Leading zero omitted, Abs format (unit mm)*
G04 Created by KiCad (PCBNEW 9.0.3) date 2025-08-18 23:52:33*
%MOMM*%
%LPD*%
G01*
G04 APERTURE LIST*
G04 Aperture macros list*
%AMRoundRect*
0 Rectangle with rounded corners*
0 $1 Rounding radius*
0 $2 $3 $4 $5 $6 $7 $8 $9 X,Y pos of 4 corners*
0 Add a 4 corners polygon primitive as box body*
4,1,4,$2,$3,$4,$5,$6,$7,$8,$9,$2,$3,0*
0 Add four circle primitives for the rounded corners*
1,1,$1+$1,$2,$3*
1,1,$1+$1,$4,$5*
1,1,$1+$1,$6,$7*
1,1,$1+$1,$8,$9*
0 Add four rect primitives between the rounded corners*
20,1,$1+$1,$2,$3,$4,$5,0*
20,1,$1+$1,$4,$5,$6,$7,0*
20,1,$1+$1,$6,$7,$8,$9,0*
20,1,$1+$1,$8,$9,$2,$3,0*%
G04 Aperture macros list end*
%TA.AperFunction,ComponentPad*%
%ADD10RoundRect,0.250000X1.330000X1.800000X-1.330000X1.800000X-1.330000X-1.800000X1.330000X-1.800000X0*%
%TD*%
%TA.AperFunction,ComponentPad*%
%ADD11O,3.160000X4.100000*%
%TD*%
%TA.AperFunction,ComponentPad*%
%ADD12RoundRect,0.250000X-1.330000X-1.800000X1.330000X-1.800000X1.330000X1.800000X-1.330000X1.800000X0*%
%TD*%
%TA.AperFunction,ComponentPad*%
%ADD13C,2.000000*%
%TD*%
%TA.AperFunction,ComponentPad*%
%ADD14R,1.700000X1.700000*%
%TD*%
%TA.AperFunction,ComponentPad*%
%ADD15C,1.700000*%
%TD*%
%TA.AperFunction,ComponentPad*%
%ADD16RoundRect,0.250000X1.800000X-1.330000X1.800000X1.330000X-1.800000X1.330000X-1.800000X-1.330000X0*%
%TD*%
%TA.AperFunction,ComponentPad*%
%ADD17O,4.100000X3.160000*%
%TD*%
%TA.AperFunction,ComponentPad*%
%ADD18RoundRect,0.250000X-1.800000X1.330000X-1.800000X-1.330000X1.800000X-1.330000X1.800000X1.330000X0*%
%TD*%
%TA.AperFunction,ViaPad*%
%ADD19C,0.600000*%
%TD*%
%TA.AperFunction,Conductor*%
%ADD20C,0.200000*%
%TD*%
%TA.AperFunction,Conductor*%
%ADD21C,0.500000*%
%TD*%
G04 APERTURE END LIST*
D10*
%TO.P,J3,1,Pin_1*%
%TO.N,SOL*%
X151980000Y-119895000D03*
D11*
%TO.P,J3,2,Pin_2*%
%TO.N,GND*%
X148020000Y-119895000D03*
%TD*%
D12*
%TO.P,J1,1,Pin_1*%
%TO.N,SOL*%
X148020000Y-80105000D03*
D11*
%TO.P,J1,2,Pin_2*%
%TO.N,GND*%
X151980000Y-80105000D03*
%TD*%
D13*
%TO.P,SW1,1,1*%
%TO.N,GND*%
X131000000Y-82000000D03*
X137500000Y-82000000D03*
%TO.P,SW1,2,2*%
%TO.N,NRST*%
X131000000Y-86500000D03*
X137500000Y-86500000D03*
%TD*%
D14*
%TO.P,J5,1,Pin_1*%
%TO.N,GND*%
X159960000Y-108870000D03*
D15*
%TO.P,J5,2,Pin_2*%
%TO.N,BATT*%
X162500000Y-108870000D03*
%TO.P,J5,3,Pin_3*%
%TO.N,~{BATT_CON}*%
X159960000Y-106330000D03*
%TO.P,J5,4,Pin_4*%
%TO.N,~{BATT_CHG}*%
X162500000Y-106330000D03*
%TO.P,J5,5,Pin_5*%
%TO.N,SOL*%
X159960000Y-103790000D03*
%TO.P,J5,6,Pin_6*%
%TO.N,unconnected-(J5-Pin_6-Pad6)*%
X162500000Y-103790000D03*
%TO.P,J5,7,Pin_7*%
%TO.N,unconnected-(J5-Pin_7-Pad7)*%
X159960000Y-101250000D03*
%TO.P,J5,8,Pin_8*%
%TO.N,unconnected-(J5-Pin_8-Pad8)*%
X162500000Y-101250000D03*
%TO.P,J5,9,Pin_9*%
%TO.N,+3V3*%
X159960000Y-98710000D03*
%TO.P,J5,10,Pin_10*%
%TO.N,NRST*%
X162500000Y-98710000D03*
%TO.P,J5,11,Pin_11*%
%TO.N,SWDIO*%
X159960000Y-96170000D03*
%TO.P,J5,12,Pin_12*%
%TO.N,SWCLK*%
X162500000Y-96170000D03*
%TO.P,J5,13,Pin_13*%
%TO.N,unconnected-(J5-Pin_13-Pad13)*%
X159960000Y-93630000D03*
%TO.P,J5,14,Pin_14*%
%TO.N,unconnected-(J5-Pin_14-Pad14)*%
X162500000Y-93630000D03*
%TO.P,J5,15,Pin_15*%
%TO.N,unconnected-(J5-Pin_15-Pad15)*%
X159960000Y-91090000D03*
%TO.P,J5,16,Pin_16*%
%TO.N,unconnected-(J5-Pin_16-Pad16)*%
X162500000Y-91090000D03*
%TD*%
D16*
%TO.P,J4,1,Pin_1*%
%TO.N,SOL*%
X130105000Y-101980000D03*
D17*
%TO.P,J4,2,Pin_2*%
%TO.N,GND*%
X130105000Y-98020000D03*
%TD*%
D14*
%TO.P,J6,1,Pin_1*%
%TO.N,+3V3*%
X158420000Y-83250000D03*
D15*
%TO.P,J6,2,Pin_2*%
%TO.N,NRST*%
X160960000Y-83250000D03*
%TO.P,J6,3,Pin_3*%
%TO.N,SWDIO*%
X163500000Y-83250000D03*
%TO.P,J6,4,Pin_4*%
%TO.N,SWCLK*%
X166040000Y-83250000D03*
%TO.P,J6,5,Pin_5*%
%TO.N,GND*%
X168580000Y-83250000D03*
%TD*%
D18*
%TO.P,J2,1,Pin_1*%
%TO.N,SOL*%
X169895000Y-98000000D03*
D17*
%TO.P,J2,2,Pin_2*%
%TO.N,GND*%
X169895000Y-101960000D03*
%TD*%
D19*
%TO.N,GND*%
X151940000Y-107800000D03*
X138750000Y-117750000D03*
X164800000Y-86000000D03*
X157400000Y-89600000D03*
X162600000Y-88400000D03*
X141750000Y-119250000D03*
X147660000Y-89600000D03*
X149200000Y-92500000D03*
X160000000Y-85800000D03*
X152740000Y-87060000D03*
X142200000Y-101230000D03*
X156460000Y-112200000D03*
X159000000Y-112200000D03*
X147660000Y-87060000D03*
X150200000Y-89600000D03*
X157400000Y-93400000D03*
X150200000Y-87060000D03*
X149400000Y-107800000D03*
X145750000Y-107750000D03*
X147250000Y-92500000D03*
%TO.N,SOL*%
X144276733Y-111208968D03*
X138500000Y-108250000D03*
%TO.N,/Power Supply/STORE*%
X141372553Y-113000000D03*
X137250000Y-114000000D03*
X141372553Y-110361103D03*
%TO.N,+3V3*%
X153500000Y-90000000D03*
X157500000Y-96250000D03*
X146750000Y-91750000D03*
X157250000Y-86250000D03*
%TO.N,NRST*%
X142000000Y-99350000D03*
%TO.N,Net-(U1-MPP)*%
X134825998Y-111008233D03*
X134825998Y-113758233D03*
%TO.N,~{BATT_CON}*%
X145750000Y-113400000D03*
X138250000Y-115250000D03*
%TO.N,BATT*%
X142000000Y-111158233D03*
X144650763Y-113250707D03*
%TO.N,~{BATT_CHG}*%
X137250000Y-115250000D03*
X145750000Y-114600000D03*
%TO.N,SWCLK*%
X155250000Y-93125000D03*
%TD*%
D20*
%TO.N,GND*%
X141750000Y-119250000D02*
X141750000Y-118500000D01*
X141250000Y-118000000D02*
X139000000Y-118000000D01*
X141750000Y-118500000D02*
X141250000Y-118000000D01*
X139000000Y-118000000D02*
X138750000Y-117750000D01*
X149200000Y-92500000D02*
X147250000Y-92500000D01*
D21*
%TO.N,SOL*%
X166105000Y-119895000D02*
X151980000Y-119895000D01*
X163250000Y-87000000D02*
X154915000Y-87000000D01*
X172500000Y-113500000D02*
X166105000Y-119895000D01*
X151980000Y-111770000D02*
X159960000Y-103790000D01*
X151980000Y-119895000D02*
X151980000Y-111770000D01*
X159960000Y-103790000D02*
X158150000Y-101980000D01*
X158150000Y-101980000D02*
X130105000Y-101980000D01*
X169895000Y-98000000D02*
X172500000Y-100605000D01*
D20*
X141825998Y-108758233D02*
X144276733Y-111208968D01*
D21*
X154915000Y-87000000D02*
X148020000Y-80105000D01*
D20*
X138500000Y-108250000D02*
X139008233Y-108758233D01*
D21*
X172500000Y-100605000D02*
X172500000Y-113500000D01*
X169895000Y-98000000D02*
X169895000Y-93645000D01*
X169895000Y-93645000D02*
X163250000Y-87000000D01*
D20*
X139008233Y-108758233D02*
X141825998Y-108758233D01*
%TO.N,/Power Supply/STORE*%
X140372553Y-114000000D02*
X141372553Y-113000000D01*
X140200000Y-114000000D02*
X137250000Y-114000000D01*
X141372553Y-113000000D02*
X141372553Y-110361103D01*
X140200000Y-114000000D02*
X140372553Y-114000000D01*
%TO.N,+3V3*%
X146750000Y-91750000D02*
X151750000Y-91750000D01*
X157500000Y-96250000D02*
X159960000Y-98710000D01*
X158420000Y-85080000D02*
X158420000Y-83250000D01*
X151750000Y-91750000D02*
X153500000Y-90000000D01*
X157250000Y-86250000D02*
X158420000Y-85080000D01*
%TO.N,NRST*%
X141500000Y-98850000D02*
X141500000Y-90500000D01*
X142000000Y-99350000D02*
X141500000Y-98850000D01*
X141500000Y-90500000D02*
X137500000Y-86500000D01*
X142729000Y-100079000D02*
X161131000Y-100079000D01*
X161131000Y-100079000D02*
X162500000Y-98710000D01*
X142000000Y-99350000D02*
X142729000Y-100079000D01*
%TO.N,Net-(U1-MPP)*%
X134825998Y-113758233D02*
X134825998Y-111008233D01*
%TO.N,~{BATT_CON}*%
X143500000Y-115250000D02*
X138250000Y-115250000D01*
X145750000Y-113400000D02*
X145350000Y-113400000D01*
X145350000Y-113400000D02*
X143500000Y-115250000D01*
%TO.N,BATT*%
X142558289Y-111158233D02*
X144650763Y-113250707D01*
X142000000Y-111158233D02*
X142558289Y-111158233D01*
%TO.N,~{BATT_CHG}*%
X137851000Y-115851000D02*
X137250000Y-115250000D01*
X145750000Y-114600000D02*
X145600000Y-114750000D01*
X145500000Y-114750000D02*
X144399000Y-115851000D01*
X145600000Y-114750000D02*
X145500000Y-114750000D01*
X144399000Y-115851000D02*
X137851000Y-115851000D01*
%TO.N,SWCLK*%
X155250000Y-93125000D02*
X155250000Y-93750000D01*
X156300000Y-94800000D02*
X161130000Y-94800000D01*
X161130000Y-94800000D02*
X162500000Y-96170000D01*
X155250000Y-93750000D02*
X156300000Y-94800000D01*
%TD*%
%TA.AperFunction,Conductor*%
%TO.N,GND*%
G36*
X170006106Y-76500800D02*
G01*
X170021022Y-76501532D01*
X170330804Y-76516751D01*
X170355095Y-76519143D01*
X170670633Y-76565949D01*
X170694568Y-76570710D01*
X171004002Y-76648219D01*
X171027360Y-76655305D01*
X171327684Y-76762763D01*
X171350259Y-76772114D01*
X171638589Y-76908484D01*
X171660138Y-76920001D01*
X171933735Y-77083989D01*
X171954037Y-77097554D01*
X172169913Y-77257659D01*
X172210235Y-77287564D01*
X172229121Y-77303063D01*
X172465465Y-77517273D01*
X172482726Y-77534534D01*
X172643831Y-77712286D01*
X172696934Y-77770876D01*
X172712435Y-77789764D01*
X172902440Y-78045955D01*
X172916013Y-78066268D01*
X172967521Y-78152204D01*
X173079997Y-78339860D01*
X173091515Y-78361410D01*
X173227885Y-78649740D01*
X173237236Y-78672315D01*
X173344690Y-78972626D01*
X173351784Y-78996010D01*
X173429286Y-79305416D01*
X173434053Y-79329382D01*
X173480854Y-79644889D01*
X173483249Y-79669207D01*
X173499200Y-79993893D01*
X173499500Y-80006111D01*
X173499500Y-99941993D01*
X173480546Y-100037281D01*
X173461918Y-100065160D01*
X173427047Y-100117350D01*
X173426570Y-100118063D01*
X173417059Y-100124418D01*
X173345789Y-100172039D01*
X173250501Y-100190993D01*
X173250500Y-100190992D01*
X173250500Y-100190993D01*
X173155212Y-100172039D01*
X173074431Y-100118064D01*
X173036866Y-100080499D01*
X172978416Y-100022049D01*
X172518425Y-99562057D01*
X172464453Y-99481281D01*
X172445499Y-99385993D01*
X172445499Y-99380018D01*
X172445500Y-99380009D01*
X172445499Y-96619992D01*
X172434999Y-96517203D01*
X172379814Y-96350666D01*
X172287712Y-96201344D01*
X172163656Y-96077288D01*
X172014334Y-95985186D01*
X172014332Y-95985185D01*
X172014330Y-95985184D01*
X172014332Y-95985184D01*
X171847802Y-95930002D01*
X171847798Y-95930001D01*
X171847797Y-95930001D01*
X171796403Y-95924750D01*
X171745011Y-95919500D01*
X171745009Y-95919500D01*
X170894500Y-95919500D01*
X170799212Y-95900546D01*
X170718430Y-95846570D01*
X170664454Y-95765788D01*
X170645500Y-95670500D01*
X170645500Y-93571081D01*
X170645499Y-93571079D01*
X170636075Y-93523703D01*
X170616658Y-93426087D01*
X170560084Y-93289505D01*
X170477951Y-93166584D01*
X170477949Y-93166582D01*
X170373416Y-93062048D01*
X170373416Y-93062049D01*
X163728416Y-86417048D01*
X163728412Y-86417045D01*
X163728410Y-86417043D01*
X163728411Y-86417043D01*
X163654732Y-86367815D01*
X163654729Y-86367812D01*
X163654729Y-86367813D01*
X163605495Y-86334916D01*
X163468913Y-86278342D01*
X163468911Y-86278341D01*
X163323920Y-86249500D01*
X163323918Y-86249500D01*
X158700873Y-86249500D01*
X158605585Y-86230546D01*
X158524803Y-86176570D01*
X158487729Y-86121084D01*
X158470827Y-86095789D01*
X158451873Y-86000501D01*
X158470827Y-85905212D01*
X158524803Y-85824431D01*
X158635672Y-85713562D01*
X158788713Y-85560521D01*
X158788716Y-85560520D01*
X158900520Y-85448716D01*
X158954348Y-85355483D01*
X158979577Y-85311785D01*
X159020501Y-85159057D01*
X159020501Y-85000943D01*
X159020501Y-84985683D01*
X159020500Y-84985665D01*
X159020500Y-84849499D01*
X159039454Y-84754211D01*
X159093430Y-84673429D01*
X159174212Y-84619453D01*
X159269500Y-84600499D01*
X159317866Y-84600499D01*
X159317872Y-84600499D01*
X159377483Y-84594091D01*
X159512331Y-84543796D01*
X159627546Y-84457546D01*
X159713796Y-84342331D01*
X159713796Y-84342329D01*
X159724469Y-84328073D01*
X159727616Y-84330429D01*
X159768789Y-84281159D01*
X159854875Y-84236123D01*
X159951643Y-84227458D01*
X160044360Y-84256485D01*
X160071626Y-84275270D01*
X160072293Y-84274353D01*
X160080206Y-84280102D01*
X160080208Y-84280104D01*
X160252184Y-84405051D01*
X160441588Y-84501557D01*
X160643757Y-84567246D01*
X160717601Y-84578941D01*
X160853703Y-84600499D01*
X160853710Y-84600499D01*
X160853713Y-84600500D01*
X160853716Y-84600500D01*
X161066284Y-84600500D01*
X161066287Y-84600500D01*
X161066290Y-84600499D01*
X161066296Y-84600499D01*
X161165476Y-84584789D01*
X161276243Y-84567246D01*
X161478412Y-84501557D01*
X161667816Y-84405051D01*
X161839792Y-84280104D01*
X161990104Y-84129792D01*
X162028555Y-84076867D01*
X162099897Y-84010920D01*
X162191047Y-83977293D01*
X162288127Y-83981107D01*
X162376358Y-84021781D01*
X162431444Y-84076867D01*
X162469896Y-84129792D01*
X162620208Y-84280104D01*
X162792184Y-84405051D01*
X162981588Y-84501557D01*
X163183757Y-84567246D01*
X163257601Y-84578941D01*
X163393703Y-84600499D01*
X163393710Y-84600499D01*
X163393713Y-84600500D01*
X163393716Y-84600500D01*
X163606284Y-84600500D01*
X163606287Y-84600500D01*
X163606290Y-84600499D01*
X163606296Y-84600499D01*
X163705476Y-84584789D01*
X163816243Y-84567246D01*
X164018412Y-84501557D01*
X164207816Y-84405051D01*
X164379792Y-84280104D01*
X164530104Y-84129792D01*
X164568555Y-84076867D01*
X164639897Y-84010920D01*
X164731047Y-83977293D01*
X164828127Y-83981107D01*
X164916358Y-84021781D01*
X164971444Y-84076867D01*
X165009896Y-84129792D01*
X165160208Y-84280104D01*
X165332184Y-84405051D01*
X165521588Y-84501557D01*
X165723757Y-84567246D01*
X165797601Y-84578941D01*
X165933703Y-84600499D01*
X165933710Y-84600499D01*
X165933713Y-84600500D01*
X165933716Y-84600500D01*
X166146284Y-84600500D01*
X166146287Y-84600500D01*
X166146290Y-84600499D01*
X166146296Y-84600499D01*
X166245476Y-84584789D01*
X166356243Y-84567246D01*
X166558412Y-84501557D01*
X166747816Y-84405051D01*
X166919792Y-84280104D01*
X167070104Y-84129792D01*
X167072089Y-84127058D01*
X167074307Y-84124008D01*
X167098136Y-84091208D01*
X167108863Y-84076443D01*
X167180205Y-84010494D01*
X167271355Y-83976866D01*
X167368435Y-83980679D01*
X167429801Y-84008968D01*
X167464729Y-84011717D01*
X168097037Y-83379408D01*
X168114075Y-83442993D01*
X168179901Y-83557007D01*
X168272993Y-83650099D01*
X168387007Y-83715925D01*
X168450589Y-83732962D01*
X167818282Y-84365269D01*
X167818282Y-84365270D01*
X167872448Y-84404624D01*
X168061774Y-84501091D01*
X168061784Y-84501095D01*
X168263876Y-84566758D01*
X168473743Y-84599999D01*
X168473756Y-84600000D01*
X168686244Y-84600000D01*
X168686256Y-84599999D01*
X168896123Y-84566758D01*
X169098215Y-84501095D01*
X169098224Y-84501091D01*
X169287551Y-84404624D01*
X169341716Y-84365270D01*
X168709408Y-83732962D01*
X168772993Y-83715925D01*
X168887007Y-83650099D01*
X168980099Y-83557007D01*
X169045925Y-83442993D01*
X169062962Y-83379408D01*
X169695270Y-84011716D01*
X169734624Y-83957551D01*
X169831091Y-83768224D01*
X169831095Y-83768215D01*
X169896758Y-83566123D01*
X169929999Y-83356256D01*
X169930000Y-83356244D01*
X169930000Y-83143755D01*
X169929999Y-83143743D01*
X169896758Y-82933876D01*
X169831095Y-82731784D01*
X169831091Y-82731774D01*
X169734624Y-82542448D01*
X169695270Y-82488282D01*
X169695269Y-82488282D01*
X169062962Y-83120589D01*
X169045925Y-83057007D01*
X168980099Y-82942993D01*
X168887007Y-82849901D01*
X168772993Y-82784075D01*
X168709408Y-82767037D01*
X169341717Y-82134729D01*
X169287551Y-82095375D01*
X169287545Y-82095371D01*
X169098225Y-81998908D01*
X169098215Y-81998904D01*
X168896123Y-81933241D01*
X168686256Y-81900000D01*
X168473743Y-81900000D01*
X168263876Y-81933241D01*
X168061784Y-81998904D01*
X168061774Y-81998908D01*
X167872454Y-82095372D01*
X167872441Y-82095380D01*
X167818281Y-82134728D01*
X168450591Y-82767037D01*
X168387007Y-82784075D01*
X168272993Y-82849901D01*
X168179901Y-82942993D01*
X168114075Y-83057007D01*
X168097037Y-83120590D01*
X167464728Y-82488281D01*
X167438033Y-82490382D01*
X167403836Y-82502998D01*
X167368433Y-82519319D01*
X167358542Y-82519707D01*
X167349257Y-82523133D01*
X167310307Y-82521601D01*
X167271353Y-82523132D01*
X167262066Y-82519705D01*
X167252176Y-82519317D01*
X167216776Y-82502997D01*
X167180203Y-82489504D01*
X167172934Y-82482784D01*
X167163946Y-82478641D01*
X167108864Y-82423557D01*
X167070104Y-82370208D01*
X166919792Y-82219896D01*
X166747816Y-82094949D01*
X166558412Y-81998443D01*
X166558409Y-81998442D01*
X166558407Y-81998441D01*
X166356240Y-81932753D01*
X166146296Y-81899500D01*
X166146287Y-81899500D01*
X165933713Y-81899500D01*
X165933703Y-81899500D01*
X165723759Y-81932753D01*
X165521592Y-81998441D01*
X165332182Y-82094950D01*
X165160206Y-82219897D01*
X165009896Y-82370207D01*
X164971445Y-82423131D01*
X164900101Y-82489080D01*
X164808951Y-82522707D01*
X164711871Y-82518892D01*
X164623641Y-82478217D01*
X164568555Y-82423131D01*
X164530103Y-82370207D01*
X164379793Y-82219897D01*
X164313768Y-82171927D01*
X164207816Y-82094949D01*
X164018412Y-81998443D01*
X164018409Y-81998442D01*
X164018407Y-81998441D01*
X163816240Y-81932753D01*
X163606296Y-81899500D01*
X163606287Y-81899500D01*
X163393713Y-81899500D01*
X163393703Y-81899500D01*
X163183759Y-81932753D01*
X162981592Y-81998441D01*
X162792182Y-82094950D01*
X162620206Y-82219897D01*
X162469896Y-82370207D01*
X162431445Y-82423131D01*
X162360101Y-82489080D01*
X162268951Y-82522707D01*
X162171871Y-82518892D01*
X162083641Y-82478217D01*
X162028555Y-82423131D01*
X161990103Y-82370207D01*
X161839793Y-82219897D01*
X161773768Y-82171927D01*
X161667816Y-82094949D01*
X161478412Y-81998443D01*
X161478409Y-81998442D01*
X161478407Y-81998441D01*
X161276240Y-81932753D01*
X161066296Y-81899500D01*
X161066287Y-81899500D01*
X160853713Y-81899500D01*
X160853703Y-81899500D01*
X160643759Y-81932753D01*
X160441592Y-81998441D01*
X160252182Y-82094950D01*
X160197431Y-82134729D01*
X160080208Y-82219896D01*
X160080206Y-82219897D01*
X160072293Y-82225647D01*
X160070630Y-82223359D01*
X160001814Y-82261834D01*
X159905324Y-82273184D01*
X159811835Y-82246746D01*
X159735581Y-82186543D01*
X159725160Y-82171409D01*
X159724469Y-82171927D01*
X159713796Y-82157670D01*
X159713796Y-82157669D01*
X159627546Y-82042454D01*
X159512331Y-81956204D01*
X159432117Y-81926286D01*
X159377481Y-81905908D01*
X159317873Y-81899500D01*
X157522134Y-81899500D01*
X157522130Y-81899500D01*
X157522128Y-81899501D01*
X157509314Y-81900878D01*
X157462519Y-81905908D01*
X157462515Y-81905909D01*
X157327670Y-81956203D01*
X157212455Y-82042453D01*
X157212453Y-82042455D01*
X157126204Y-82157669D01*
X157075908Y-82292518D01*
X157069500Y-82352123D01*
X157069500Y-84147865D01*
X157069501Y-84147869D01*
X157075908Y-84207480D01*
X157075909Y-84207484D01*
X157100850Y-84274353D01*
X157126204Y-84342331D01*
X157212454Y-84457546D01*
X157327669Y-84543796D01*
X157462517Y-84594091D01*
X157481534Y-84596135D01*
X157574245Y-84625164D01*
X157648795Y-84687465D01*
X157693829Y-84773553D01*
X157702490Y-84870321D01*
X157673460Y-84963037D01*
X157630986Y-85019778D01*
X157262150Y-85388614D01*
X157181368Y-85442590D01*
X157134660Y-85456759D01*
X157016504Y-85480262D01*
X157016502Y-85480263D01*
X156870826Y-85540603D01*
X156870819Y-85540606D01*
X156739714Y-85628208D01*
X156628208Y-85739714D01*
X156540606Y-85870819D01*
X156540603Y-85870826D01*
X156480263Y-86016502D01*
X156480261Y-86016507D01*
X156473783Y-86049078D01*
X156436604Y-86138837D01*
X156367905Y-86207536D01*
X156278145Y-86244716D01*
X156229568Y-86249500D01*
X155329007Y-86249500D01*
X155233719Y-86230546D01*
X155152937Y-86176570D01*
X151802930Y-82826563D01*
X151748954Y-82745781D01*
X151730000Y-82650493D01*
X151730000Y-80921480D01*
X151732064Y-80922335D01*
X151896282Y-80955000D01*
X152063718Y-80955000D01*
X152227936Y-80922335D01*
X152230000Y-80921480D01*
X152230000Y-82549353D01*
X152310132Y-82629485D01*
X152386652Y-82619411D01*
X152650030Y-82548840D01*
X152901926Y-82444501D01*
X152901930Y-82444499D01*
X153138061Y-82308170D01*
X153138076Y-82308160D01*
X153354376Y-82142186D01*
X153547186Y-81949376D01*
X153713160Y-81733076D01*
X153713170Y-81733061D01*
X153849499Y-81496930D01*
X153849501Y-81496926D01*
X153953840Y-81245030D01*
X154024411Y-80981653D01*
X154060000Y-80711329D01*
X154060000Y-80355001D01*
X154059999Y-80355000D01*
X152796480Y-80355000D01*
X152797335Y-80352936D01*
X152830000Y-80188718D01*
X152830000Y-80021282D01*
X152797335Y-79857064D01*
X152796480Y-79855000D01*
X154059999Y-79855000D01*
X154060000Y-79854999D01*
X154060000Y-79498670D01*
X154024411Y-79228346D01*
X153953840Y-78964969D01*
X153849501Y-78713073D01*
X153849499Y-78713069D01*
X153713170Y-78476938D01*
X153713160Y-78476923D01*
X153547186Y-78260623D01*
X153354376Y-78067813D01*
X153138076Y-77901839D01*
X153138061Y-77901829D01*
X152901930Y-77765500D01*
X152901926Y-77765498D01*
X152650029Y-77661159D01*
X152386654Y-77590588D01*
X152230000Y-77569964D01*
X152230000Y-79288519D01*
X152227936Y-79287665D01*
X152063718Y-79255000D01*
X151896282Y-79255000D01*
X151732064Y-79287665D01*
X151730000Y-79288519D01*
X151730000Y-77569964D01*
X151573345Y-77590588D01*
X151309970Y-77661159D01*
X151058073Y-77765498D01*
X151058069Y-77765500D01*
X150821938Y-77901829D01*
X150821923Y-77901839D01*
X150605622Y-78067813D01*
X150482780Y-78190655D01*
X150401998Y-78244631D01*
X150306710Y-78263585D01*
X150211422Y-78244631D01*
X150130641Y-78190654D01*
X150076665Y-78109872D01*
X150070357Y-78092927D01*
X150034814Y-77985666D01*
X149942712Y-77836344D01*
X149818656Y-77712288D01*
X149669334Y-77620186D01*
X149669332Y-77620185D01*
X149669330Y-77620184D01*
X149669332Y-77620184D01*
X149502802Y-77565002D01*
X149502798Y-77565001D01*
X149502797Y-77565001D01*
X149400009Y-77554500D01*
X149400005Y-77554500D01*
X146639993Y-77554500D01*
X146537199Y-77565001D01*
X146370667Y-77620185D01*
X146221346Y-77712286D01*
X146097286Y-77836346D01*
X146005184Y-77985668D01*
X145950002Y-78152197D01*
X145950001Y-78152204D01*
X145939500Y-78254988D01*
X145939500Y-81955006D01*
X145950001Y-82057800D01*
X146005185Y-82224332D01*
X146084009Y-82352128D01*
X146097288Y-82373656D01*
X146221344Y-82497712D01*
X146370666Y-82589814D01*
X146370669Y-82589815D01*
X146370667Y-82589815D01*
X146534310Y-82644040D01*
X146537203Y-82644999D01*
X146639991Y-82655500D01*
X149400008Y-82655499D01*
X149405991Y-82655499D01*
X149501279Y-82674453D01*
X149582061Y-82728429D01*
X154332049Y-87478416D01*
X154332048Y-87478416D01*
X154436582Y-87582949D01*
X154436584Y-87582951D01*
X154559505Y-87665084D01*
X154616080Y-87688518D01*
X154696088Y-87721659D01*
X154812241Y-87744763D01*
X154841080Y-87750499D01*
X154841081Y-87750500D01*
X154841082Y-87750500D01*
X154841083Y-87750500D01*
X154988918Y-87750500D01*
X162835992Y-87750500D01*
X162931280Y-87769454D01*
X163012062Y-87823430D01*
X169071570Y-93882937D01*
X169125546Y-93963719D01*
X169144500Y-94059007D01*
X169144500Y-95670500D01*
X169125546Y-95765788D01*
X169071570Y-95846570D01*
X168990788Y-95900546D01*
X168895500Y-95919500D01*
X168045002Y-95919500D01*
X168044985Y-95919501D01*
X167942199Y-95930001D01*
X167775667Y-95985185D01*
X167626346Y-96077286D01*
X167502286Y-96201346D01*
X167410184Y-96350668D01*
X167355002Y-96517197D01*
X167355001Y-96517204D01*
X167344500Y-96619988D01*
X167344500Y-99380006D01*
X167355001Y-99482800D01*
X167410185Y-99649332D01*
X167410186Y-99649334D01*
X167502288Y-99798656D01*
X167626344Y-99922712D01*
X167775666Y-100014814D01*
X167882909Y-100050351D01*
X167967396Y-100098313D01*
X168027099Y-100174959D01*
X168052927Y-100268619D01*
X168040947Y-100365032D01*
X167992983Y-100449522D01*
X167980655Y-100462780D01*
X167857813Y-100585622D01*
X167691839Y-100801923D01*
X167691829Y-100801938D01*
X167555500Y-101038069D01*
X167555498Y-101038073D01*
X167451159Y-101289969D01*
X167380588Y-101553346D01*
X167359965Y-101710000D01*
X169078520Y-101710000D01*
X169077665Y-101712064D01*
X169045000Y-101876282D01*
X169045000Y-102043718D01*
X169077665Y-102207936D01*
X169078520Y-102210000D01*
X167359965Y-102210000D01*
X167380588Y-102366653D01*
X167451159Y-102630030D01*
X167555498Y-102881926D01*
X167555500Y-102881930D01*
X167691829Y-103118061D01*
X167691839Y-103118076D01*
X167857813Y-103334376D01*
X168050623Y-103527186D01*
X168266923Y-103693160D01*
X168266938Y-103693170D01*
X168503069Y-103829499D01*
X168503073Y-103829501D01*
X168754969Y-103933840D01*
X169018346Y-104004411D01*
X169288670Y-104040000D01*
X169644999Y-104040000D01*
X169645000Y-104039999D01*
X169645000Y-102776480D01*
X169647064Y-102777335D01*
X169811282Y-102810000D01*
X169978718Y-102810000D01*
X170142936Y-102777335D01*
X170145000Y-102776480D01*
X170145000Y-104039999D01*
X170145001Y-104040000D01*
X170501330Y-104040000D01*
X170771653Y-104004411D01*
X171035030Y-103933840D01*
X171286926Y-103829501D01*
X171286930Y-103829499D01*
X171376001Y-103778075D01*
X171468000Y-103746846D01*
X171564947Y-103753201D01*
X171652082Y-103796171D01*
X171716141Y-103869217D01*
X171747370Y-103961216D01*
X171749500Y-103993716D01*
X171749500Y-113085992D01*
X171730546Y-113181280D01*
X171676570Y-113262062D01*
X165867062Y-119071570D01*
X165786280Y-119125546D01*
X165690992Y-119144500D01*
X154309499Y-119144500D01*
X154214211Y-119125546D01*
X154133429Y-119071570D01*
X154079453Y-118990788D01*
X154060499Y-118895500D01*
X154060499Y-118044993D01*
X154053927Y-117980655D01*
X154049999Y-117942203D01*
X153994814Y-117775666D01*
X153902712Y-117626344D01*
X153778656Y-117502288D01*
X153629334Y-117410186D01*
X153629332Y-117410185D01*
X153629330Y-117410184D01*
X153629332Y-117410184D01*
X153462802Y-117355002D01*
X153462798Y-117355001D01*
X153462797Y-117355001D01*
X153411403Y-117349750D01*
X153360011Y-117344500D01*
X153360009Y-117344500D01*
X152979500Y-117344500D01*
X152884212Y-117325546D01*
X152803430Y-117271570D01*
X152749454Y-117190788D01*
X152730500Y-117095500D01*
X152730500Y-112184007D01*
X152749454Y-112088719D01*
X152803430Y-112007937D01*
X155512430Y-109298937D01*
X158238304Y-106573062D01*
X158319083Y-106519089D01*
X158414371Y-106500135D01*
X158509659Y-106519089D01*
X158590441Y-106573065D01*
X158644417Y-106653847D01*
X158651184Y-106672189D01*
X158708441Y-106848408D01*
X158804950Y-107037817D01*
X158935647Y-107217707D01*
X158933433Y-107219314D01*
X158972145Y-107288505D01*
X158983525Y-107384992D01*
X158957115Y-107478488D01*
X158896936Y-107554761D01*
X158881655Y-107565287D01*
X158882169Y-107565974D01*
X158752812Y-107662810D01*
X158752810Y-107662812D01*
X158666646Y-107777912D01*
X158616403Y-107912621D01*
X158616401Y-107912628D01*
X158610000Y-107972167D01*
X158610000Y-108619999D01*
X158610001Y-108620000D01*
X159526988Y-108620000D01*
X159494075Y-108677007D01*
X159460000Y-108804174D01*
X159460000Y-108935826D01*
X159494075Y-109062993D01*
X159526988Y-109120000D01*
X158610001Y-109120000D01*
X158610000Y-109120001D01*
X158610000Y-109767832D01*
X158616401Y-109827371D01*
X158616403Y-109827378D01*
X158666646Y-109962087D01*
X158752810Y-110077187D01*
X158752812Y-110077189D01*
X158867912Y-110163353D01*
X159002621Y-110213596D01*
X159002628Y-110213598D01*
X159062167Y-110219999D01*
X159062175Y-110220000D01*
X159709999Y-110220000D01*
X159710000Y-110219999D01*
X159710000Y-109303012D01*
X159767007Y-109335925D01*
X159894174Y-109370000D01*
X160025826Y-109370000D01*
X160152993Y-109335925D01*
X160210000Y-109303012D01*
X160210000Y-110219999D01*
X160210001Y-110220000D01*
X160857825Y-110220000D01*
X160857832Y-110219999D01*
X160917371Y-110213598D01*
X160917378Y-110213596D01*
X161052087Y-110163353D01*
X161167187Y-110077189D01*
X161167189Y-110077187D01*
X161264026Y-109947831D01*
X161267159Y-109950176D01*
X161308346Y-109900864D01*
X161394421Y-109855806D01*
X161491187Y-109847117D01*
X161583912Y-109876120D01*
X161611659Y-109895225D01*
X161612293Y-109894353D01*
X161620206Y-109900102D01*
X161620208Y-109900104D01*
X161792184Y-110025051D01*
X161981588Y-110121557D01*
X162183757Y-110187246D01*
X162257601Y-110198941D01*
X162393703Y-110220499D01*
X162393710Y-110220499D01*
X162393713Y-110220500D01*
X162393716Y-110220500D01*
X162606284Y-110220500D01*
X162606287Y-110220500D01*
X162606290Y-110220499D01*
X162606296Y-110220499D01*
X162705476Y-110204789D01*
X162816243Y-110187246D01*
X163018412Y-110121557D01*
X163207816Y-110025051D01*
X163379792Y-109900104D01*
X163530104Y-109749792D01*
X163655051Y-109577816D01*
X163751557Y-109388412D01*
X163817246Y-109186243D01*
X163843618Y-109019737D01*
X163850499Y-108976296D01*
X163850500Y-108976284D01*
X163850500Y-108763715D01*
X163850499Y-108763703D01*
X163817246Y-108553759D01*
X163817246Y-108553757D01*
X163751557Y-108351588D01*
X163655051Y-108162184D01*
X163530104Y-107990208D01*
X163379792Y-107839896D01*
X163326867Y-107801444D01*
X163260920Y-107730103D01*
X163227293Y-107638953D01*
X163231107Y-107541873D01*
X163271781Y-107453642D01*
X163326867Y-107398555D01*
X163379792Y-107360104D01*
X163530104Y-107209792D01*
X163655051Y-107037816D01*
X163751557Y-106848412D01*
X163817246Y-106646243D01*
X163837385Y-106519089D01*
X163850499Y-106436296D01*
X163850500Y-106436284D01*
X163850500Y-106223715D01*
X163850499Y-106223703D01*
X163817246Y-106013759D01*
X163817246Y-106013757D01*
X163751557Y-105811588D01*
X163655051Y-105622184D01*
X163530104Y-105450208D01*
X163379792Y-105299896D01*
X163326867Y-105261444D01*
X163260920Y-105190103D01*
X163227293Y-105098953D01*
X163231107Y-105001873D01*
X163271781Y-104913642D01*
X163326867Y-104858555D01*
X163379792Y-104820104D01*
X163530104Y-104669792D01*
X163655051Y-104497816D01*
X163751557Y-104308412D01*
X163817246Y-104106243D01*
X163844552Y-103933840D01*
X163850499Y-103896296D01*
X163850500Y-103896284D01*
X163850500Y-103683715D01*
X163850499Y-103683703D01*
X163817246Y-103473759D01*
X163817246Y-103473757D01*
X163751557Y-103271588D01*
X163655051Y-103082184D01*
X163530104Y-102910208D01*
X163379792Y-102759896D01*
X163326867Y-102721444D01*
X163260920Y-102650103D01*
X163227293Y-102558953D01*
X163231107Y-102461873D01*
X163271781Y-102373642D01*
X163326867Y-102318555D01*
X163379792Y-102280104D01*
X163530104Y-102129792D01*
X163655051Y-101957816D01*
X163751557Y-101768412D01*
X163817246Y-101566243D01*
X163850500Y-101356287D01*
X163850500Y-101143713D01*
X163850499Y-101143710D01*
X163850499Y-101143703D01*
X163817246Y-100933759D01*
X163817246Y-100933757D01*
X163751557Y-100731588D01*
X163655051Y-100542184D01*
X163530104Y-100370208D01*
X163379792Y-100219896D01*
X163326867Y-100181444D01*
X163260920Y-100110103D01*
X163227293Y-100018953D01*
X163231107Y-99921873D01*
X163271781Y-99833642D01*
X163326867Y-99778555D01*
X163379792Y-99740104D01*
X163530104Y-99589792D01*
X163655051Y-99417816D01*
X163751557Y-99228412D01*
X163817246Y-99026243D01*
X163846790Y-98839711D01*
X163850499Y-98816296D01*
X163850500Y-98816284D01*
X163850500Y-98603715D01*
X163850499Y-98603703D01*
X163817246Y-98393759D01*
X163817246Y-98393757D01*
X163751557Y-98191588D01*
X163655051Y-98002184D01*
X163530104Y-97830208D01*
X163379792Y-97679896D01*
X163326867Y-97641444D01*
X163260920Y-97570103D01*
X163227293Y-97478953D01*
X163231107Y-97381873D01*
X163271781Y-97293642D01*
X163326867Y-97238555D01*
X163379792Y-97200104D01*
X163530104Y-97049792D01*
X163655051Y-96877816D01*
X163751557Y-96688412D01*
X163817246Y-96486243D01*
X163838719Y-96350667D01*
X163850499Y-96276296D01*
X163850500Y-96276284D01*
X163850500Y-96063715D01*
X163850499Y-96063703D01*
X163819949Y-95870826D01*
X163817246Y-95853757D01*
X163751557Y-95651588D01*
X163655051Y-95462184D01*
X163530104Y-95290208D01*
X163379792Y-95139896D01*
X163326867Y-95101444D01*
X163260920Y-95030103D01*
X163227293Y-94938953D01*
X163231107Y-94841873D01*
X163271781Y-94753642D01*
X163326867Y-94698555D01*
X163379792Y-94660104D01*
X163530104Y-94509792D01*
X163655051Y-94337816D01*
X163751557Y-94148412D01*
X163817246Y-93946243D01*
X163835807Y-93829057D01*
X163850499Y-93736296D01*
X163850500Y-93736284D01*
X163850500Y-93523715D01*
X163850499Y-93523703D01*
X163817246Y-93313759D01*
X163817246Y-93313757D01*
X163751557Y-93111588D01*
X163655051Y-92922184D01*
X163530104Y-92750208D01*
X163379792Y-92599896D01*
X163326867Y-92561444D01*
X163260920Y-92490103D01*
X163227293Y-92398953D01*
X163231107Y-92301873D01*
X163271781Y-92213642D01*
X163326867Y-92158555D01*
X163379792Y-92120104D01*
X163530104Y-91969792D01*
X163655051Y-91797816D01*
X163751557Y-91608412D01*
X163817246Y-91406243D01*
X163843622Y-91239714D01*
X163850499Y-91196296D01*
X163850500Y-91196284D01*
X163850500Y-90983715D01*
X163850499Y-90983703D01*
X163821482Y-90800500D01*
X163817246Y-90773757D01*
X163751557Y-90571588D01*
X163655051Y-90382184D01*
X163530104Y-90210208D01*
X163379792Y-90059896D01*
X163207816Y-89934949D01*
X163018412Y-89838443D01*
X163018409Y-89838442D01*
X163018407Y-89838441D01*
X162816240Y-89772753D01*
X162606296Y-89739500D01*
X162606287Y-89739500D01*
X162393713Y-89739500D01*
X162393703Y-89739500D01*
X162183759Y-89772753D01*
X161981592Y-89838441D01*
X161792182Y-89934950D01*
X161620206Y-90059897D01*
X161469896Y-90210207D01*
X161431445Y-90263131D01*
X161360101Y-90329080D01*
X161268951Y-90362707D01*
X161171871Y-90358892D01*
X161083641Y-90318217D01*
X161028555Y-90263131D01*
X160990103Y-90210207D01*
X160839793Y-90059897D01*
X160784164Y-90019480D01*
X160667816Y-89934949D01*
X160478412Y-89838443D01*
X160478409Y-89838442D01*
X160478407Y-89838441D01*
X160276240Y-89772753D01*
X160066296Y-89739500D01*
X160066287Y-89739500D01*
X159853713Y-89739500D01*
X159853703Y-89739500D01*
X159643759Y-89772753D01*
X159441592Y-89838441D01*
X159252182Y-89934950D01*
X159080206Y-90059897D01*
X158929897Y-90210206D01*
X158804950Y-90382182D01*
X158708441Y-90571592D01*
X158642753Y-90773759D01*
X158609500Y-90983703D01*
X158609500Y-91196296D01*
X158642753Y-91406240D01*
X158642754Y-91406243D01*
X158708443Y-91608412D01*
X158804949Y-91797816D01*
X158929896Y-91969792D01*
X159080208Y-92120104D01*
X159092699Y-92129179D01*
X159133131Y-92158555D01*
X159199080Y-92229899D01*
X159232707Y-92321049D01*
X159228892Y-92418129D01*
X159188217Y-92506359D01*
X159133131Y-92561445D01*
X159080207Y-92599896D01*
X158929897Y-92750206D01*
X158804950Y-92922182D01*
X158708441Y-93111592D01*
X158642753Y-93313759D01*
X158609500Y-93523703D01*
X158609500Y-93736284D01*
X158609501Y-93736298D01*
X158637258Y-93911548D01*
X158633444Y-94008628D01*
X158592769Y-94096858D01*
X158521426Y-94162807D01*
X158430276Y-94196434D01*
X158391324Y-94199500D01*
X156651875Y-94199500D01*
X156556587Y-94180546D01*
X156475805Y-94126570D01*
X156045998Y-93696763D01*
X155992022Y-93615981D01*
X155973068Y-93520693D01*
X155992021Y-93425409D01*
X156019737Y-93358497D01*
X156050500Y-93203842D01*
X156050500Y-93046158D01*
X156025840Y-92922184D01*
X156019738Y-92891507D01*
X156019737Y-92891505D01*
X156019737Y-92891503D01*
X155959394Y-92745821D01*
X155871789Y-92614711D01*
X155760289Y-92503211D01*
X155740672Y-92490103D01*
X155629180Y-92415606D01*
X155629173Y-92415603D01*
X155483497Y-92355263D01*
X155483492Y-92355261D01*
X155328846Y-92324500D01*
X155328842Y-92324500D01*
X155171158Y-92324500D01*
X155171153Y-92324500D01*
X155016507Y-92355261D01*
X155016502Y-92355263D01*
X154870826Y-92415603D01*
X154870819Y-92415606D01*
X154739714Y-92503208D01*
X154628208Y-92614714D01*
X154540606Y-92745819D01*
X154540603Y-92745826D01*
X154480263Y-92891502D01*
X154480261Y-92891507D01*
X154449500Y-93046153D01*
X154449500Y-93203846D01*
X154480261Y-93358492D01*
X154480263Y-93358497D01*
X154540603Y-93504173D01*
X154540606Y-93504180D01*
X154607535Y-93604345D01*
X154643552Y-93688589D01*
X154649499Y-93715310D01*
X154649499Y-93829057D01*
X154690423Y-93981785D01*
X154701225Y-94000494D01*
X154720334Y-94033592D01*
X154720335Y-94033595D01*
X154756860Y-94096858D01*
X154769480Y-94118716D01*
X154881284Y-94230520D01*
X154881286Y-94230521D01*
X155819478Y-95168713D01*
X155819480Y-95168716D01*
X155931284Y-95280520D01*
X156018091Y-95330637D01*
X156018094Y-95330639D01*
X156068208Y-95359573D01*
X156068215Y-95359577D01*
X156068219Y-95359578D01*
X156220939Y-95400500D01*
X156220942Y-95400500D01*
X156220943Y-95400500D01*
X156639018Y-95400500D01*
X156734306Y-95419454D01*
X156815088Y-95473430D01*
X156869064Y-95554212D01*
X156888018Y-95649500D01*
X156869064Y-95744788D01*
X156846054Y-95787837D01*
X156790607Y-95870819D01*
X156790603Y-95870826D01*
X156730263Y-96016502D01*
X156730261Y-96016507D01*
X156699500Y-96171153D01*
X156699500Y-96328846D01*
X156730261Y-96483492D01*
X156730263Y-96483497D01*
X156790603Y-96629173D01*
X156790606Y-96629180D01*
X156830184Y-96688412D01*
X156878211Y-96760289D01*
X156989711Y-96871789D01*
X156989714Y-96871791D01*
X157120819Y-96959393D01*
X157120820Y-96959393D01*
X157120821Y-96959394D01*
X157266503Y-97019737D01*
X157266505Y-97019737D01*
X157266507Y-97019738D01*
X157384658Y-97043240D01*
X157474417Y-97080419D01*
X157512150Y-97111385D01*
X158573793Y-98173028D01*
X158627769Y-98253810D01*
X158646723Y-98349098D01*
X158643657Y-98388050D01*
X158609501Y-98603701D01*
X158609500Y-98603715D01*
X158609500Y-98816296D01*
X158642753Y-99026240D01*
X158683795Y-99152555D01*
X158695214Y-99249037D01*
X158668842Y-99342544D01*
X158608694Y-99418841D01*
X158523927Y-99466313D01*
X158446982Y-99478500D01*
X143080876Y-99478500D01*
X142985588Y-99459546D01*
X142904806Y-99405570D01*
X142861384Y-99362148D01*
X142807408Y-99281366D01*
X142793241Y-99234665D01*
X142769737Y-99116503D01*
X142755356Y-99081785D01*
X142709396Y-98970826D01*
X142709393Y-98970819D01*
X142621791Y-98839714D01*
X142621789Y-98839711D01*
X142510289Y-98728211D01*
X142510285Y-98728208D01*
X142379180Y-98640606D01*
X142379177Y-98640605D01*
X142290082Y-98603701D01*
X142254212Y-98588843D01*
X142173430Y-98534867D01*
X142119454Y-98454085D01*
X142100500Y-98358797D01*
X142100500Y-91671153D01*
X145949500Y-91671153D01*
X145949500Y-91828846D01*
X145980261Y-91983492D01*
X145980263Y-91983497D01*
X146040603Y-92129173D01*
X146040606Y-92129180D01*
X146060234Y-92158555D01*
X146128211Y-92260289D01*
X146239711Y-92371789D01*
X146239714Y-92371791D01*
X146370819Y-92459393D01*
X146370820Y-92459393D01*
X146370821Y-92459394D01*
X146516503Y-92519737D01*
X146516505Y-92519737D01*
X146516507Y-92519738D01*
X146598614Y-92536070D01*
X146671158Y-92550500D01*
X146828842Y-92550500D01*
X146983497Y-92519737D01*
X147129179Y-92459394D01*
X147229347Y-92392464D01*
X147319107Y-92355284D01*
X147367684Y-92350500D01*
X151655666Y-92350500D01*
X151655682Y-92350501D01*
X151670943Y-92350501D01*
X151829056Y-92350501D01*
X151829057Y-92350501D01*
X151981785Y-92309577D01*
X152033879Y-92279500D01*
X152118716Y-92230520D01*
X152230520Y-92118716D01*
X152230521Y-92118713D01*
X153487852Y-90861383D01*
X153568631Y-90807409D01*
X153615335Y-90793240D01*
X153733497Y-90769737D01*
X153879179Y-90709394D01*
X154010289Y-90621789D01*
X154121789Y-90510289D01*
X154209394Y-90379179D01*
X154269737Y-90233497D01*
X154300500Y-90078842D01*
X154300500Y-89921158D01*
X154284047Y-89838443D01*
X154269738Y-89766507D01*
X154269737Y-89766505D01*
X154269737Y-89766503D01*
X154209394Y-89620821D01*
X154121789Y-89489711D01*
X154010289Y-89378211D01*
X154010285Y-89378208D01*
X153879180Y-89290606D01*
X153879173Y-89290603D01*
X153733497Y-89230263D01*
X153733492Y-89230261D01*
X153578846Y-89199500D01*
X153578842Y-89199500D01*
X153421158Y-89199500D01*
X153421153Y-89199500D01*
X153266507Y-89230261D01*
X153266502Y-89230263D01*
X153120826Y-89290603D01*
X153120819Y-89290606D01*
X152989714Y-89378208D01*
X152878208Y-89489714D01*
X152790606Y-89620819D01*
X152790603Y-89620826D01*
X152730263Y-89766502D01*
X152730261Y-89766507D01*
X152706760Y-89884656D01*
X152669580Y-89974416D01*
X152638615Y-90012147D01*
X151574195Y-91076569D01*
X151493413Y-91130546D01*
X151398125Y-91149500D01*
X147367684Y-91149500D01*
X147272396Y-91130546D01*
X147229347Y-91107536D01*
X147129180Y-91040607D01*
X147129179Y-91040606D01*
X147129176Y-91040604D01*
X147129173Y-91040603D01*
X146983497Y-90980263D01*
X146983492Y-90980261D01*
X146828846Y-90949500D01*
X146828842Y-90949500D01*
X146671158Y-90949500D01*
X146671153Y-90949500D01*
X146516507Y-90980261D01*
X146516502Y-90980263D01*
X146370826Y-91040603D01*
X146370819Y-91040606D01*
X146239714Y-91128208D01*
X146128208Y-91239714D01*
X146040606Y-91370819D01*
X146040603Y-91370826D01*
X145980263Y-91516502D01*
X145980261Y-91516507D01*
X145949500Y-91671153D01*
X142100500Y-91671153D01*
X142100500Y-90420944D01*
X142090114Y-90382182D01*
X142089310Y-90379179D01*
X142059577Y-90268215D01*
X142022137Y-90203368D01*
X142022137Y-90203367D01*
X142022135Y-90203365D01*
X141980520Y-90131284D01*
X141868716Y-90019480D01*
X141868713Y-90019478D01*
X139006963Y-87157728D01*
X138952987Y-87076946D01*
X138934033Y-86981658D01*
X138946219Y-86904714D01*
X138963553Y-86851368D01*
X139000500Y-86618092D01*
X139000500Y-86381908D01*
X138963553Y-86148632D01*
X138890568Y-85924008D01*
X138783343Y-85713567D01*
X138783341Y-85713564D01*
X138783340Y-85713562D01*
X138644521Y-85522495D01*
X138644519Y-85522493D01*
X138644517Y-85522490D01*
X138477510Y-85355483D01*
X138477506Y-85355480D01*
X138477504Y-85355478D01*
X138286437Y-85216659D01*
X138272747Y-85209683D01*
X138075992Y-85109432D01*
X138075989Y-85109431D01*
X138075987Y-85109430D01*
X137951079Y-85068845D01*
X137851368Y-85036447D01*
X137851366Y-85036446D01*
X137851364Y-85036446D01*
X137618103Y-84999501D01*
X137618094Y-84999500D01*
X137618092Y-84999500D01*
X137381908Y-84999500D01*
X137381905Y-84999500D01*
X137381896Y-84999501D01*
X137148635Y-85036446D01*
X136924012Y-85109430D01*
X136713562Y-85216659D01*
X136522495Y-85355478D01*
X136355478Y-85522495D01*
X136216659Y-85713562D01*
X136109430Y-85924012D01*
X136036446Y-86148635D01*
X135999501Y-86381896D01*
X135999500Y-86381912D01*
X135999500Y-86618087D01*
X135999501Y-86618103D01*
X136036446Y-86851362D01*
X136036447Y-86851368D01*
X136109432Y-87075992D01*
X136151079Y-87157728D01*
X136216659Y-87286437D01*
X136355478Y-87477504D01*
X136355480Y-87477506D01*
X136355483Y-87477510D01*
X136522490Y-87644517D01*
X136522493Y-87644519D01*
X136522495Y-87644521D01*
X136713562Y-87783340D01*
X136713564Y-87783341D01*
X136713567Y-87783343D01*
X136924008Y-87890568D01*
X137148632Y-87963553D01*
X137381908Y-88000500D01*
X137381912Y-88000500D01*
X137618088Y-88000500D01*
X137618092Y-88000500D01*
X137851368Y-87963553D01*
X137904713Y-87946219D01*
X138001193Y-87934800D01*
X138094700Y-87961172D01*
X138157728Y-88006963D01*
X140826570Y-90675805D01*
X140880546Y-90756587D01*
X140899500Y-90851875D01*
X140899500Y-98755665D01*
X140899499Y-98755683D01*
X140899499Y-98929057D01*
X140940421Y-99081781D01*
X140940422Y-99081782D01*
X140940423Y-99081785D01*
X140954513Y-99106189D01*
X140960470Y-99116507D01*
X141019479Y-99218714D01*
X141019480Y-99218716D01*
X141131278Y-99330515D01*
X141131282Y-99330518D01*
X141131284Y-99330520D01*
X141131285Y-99330521D01*
X141138615Y-99337851D01*
X141192590Y-99418631D01*
X141206759Y-99465340D01*
X141230262Y-99583494D01*
X141230263Y-99583497D01*
X141290603Y-99729173D01*
X141290606Y-99729180D01*
X141337027Y-99798653D01*
X141378211Y-99860289D01*
X141489711Y-99971789D01*
X141489714Y-99971791D01*
X141620819Y-100059393D01*
X141620820Y-100059393D01*
X141620821Y-100059394D01*
X141766501Y-100119736D01*
X141766503Y-100119737D01*
X141884659Y-100143240D01*
X141974415Y-100180417D01*
X142012143Y-100211379D01*
X142360284Y-100559520D01*
X142360286Y-100559521D01*
X142497212Y-100638575D01*
X142497213Y-100638575D01*
X142497216Y-100638577D01*
X142649943Y-100679501D01*
X142823319Y-100679501D01*
X142823335Y-100679500D01*
X158391483Y-100679500D01*
X158486771Y-100698454D01*
X158567553Y-100752430D01*
X158621529Y-100833212D01*
X158640483Y-100928500D01*
X158637417Y-100967455D01*
X158625063Y-101045450D01*
X158591435Y-101136599D01*
X158525485Y-101207942D01*
X158437254Y-101248616D01*
X158340174Y-101252429D01*
X158330551Y-101250711D01*
X158303055Y-101245241D01*
X158223918Y-101229500D01*
X158223916Y-101229500D01*
X132904499Y-101229500D01*
X132809211Y-101210546D01*
X132728429Y-101156570D01*
X132674453Y-101075788D01*
X132655499Y-100980500D01*
X132655499Y-100599993D01*
X132655499Y-100599991D01*
X132644999Y-100497203D01*
X132633592Y-100462780D01*
X132601202Y-100365032D01*
X132589814Y-100330666D01*
X132497712Y-100181344D01*
X132373656Y-100057288D01*
X132224334Y-99965186D01*
X132224332Y-99965185D01*
X132224330Y-99965184D01*
X132224331Y-99965184D01*
X132117092Y-99929649D01*
X132032602Y-99881685D01*
X131972899Y-99805038D01*
X131947072Y-99711379D01*
X131959053Y-99614966D01*
X132007017Y-99530476D01*
X132019345Y-99517218D01*
X132142186Y-99394377D01*
X132308160Y-99178076D01*
X132308170Y-99178061D01*
X132444499Y-98941930D01*
X132444501Y-98941926D01*
X132548840Y-98690030D01*
X132619411Y-98426653D01*
X132640035Y-98270000D01*
X130921480Y-98270000D01*
X130922335Y-98267936D01*
X130955000Y-98103718D01*
X130955000Y-97936282D01*
X130922335Y-97772064D01*
X130921480Y-97770000D01*
X132640034Y-97770000D01*
X132619411Y-97613346D01*
X132548840Y-97349969D01*
X132444501Y-97098073D01*
X132444499Y-97098069D01*
X132308170Y-96861938D01*
X132308160Y-96861923D01*
X132142186Y-96645623D01*
X131949376Y-96452813D01*
X131733076Y-96286839D01*
X131733061Y-96286829D01*
X131496930Y-96150500D01*
X131496926Y-96150498D01*
X131245030Y-96046159D01*
X130981653Y-95975588D01*
X130711330Y-95940000D01*
X130355001Y-95940000D01*
X130355000Y-95940001D01*
X130355000Y-97203519D01*
X130352936Y-97202665D01*
X130188718Y-97170000D01*
X130021282Y-97170000D01*
X129857064Y-97202665D01*
X129855000Y-97203519D01*
X129855000Y-95940001D01*
X129854999Y-95940000D01*
X129498670Y-95940000D01*
X129228346Y-95975588D01*
X128964969Y-96046159D01*
X128713073Y-96150498D01*
X128713069Y-96150500D01*
X128476938Y-96286829D01*
X128476923Y-96286839D01*
X128260623Y-96452813D01*
X128067813Y-96645623D01*
X127901839Y-96861923D01*
X127901829Y-96861938D01*
X127765500Y-97098069D01*
X127765498Y-97098073D01*
X127661159Y-97349969D01*
X127590588Y-97613346D01*
X127569965Y-97770000D01*
X129288520Y-97770000D01*
X129287665Y-97772064D01*
X129255000Y-97936282D01*
X129255000Y-98103718D01*
X129287665Y-98267936D01*
X129288520Y-98270000D01*
X127569965Y-98270000D01*
X127590588Y-98426653D01*
X127661159Y-98690030D01*
X127765498Y-98941926D01*
X127765500Y-98941930D01*
X127901829Y-99178061D01*
X127901839Y-99178076D01*
X128067813Y-99394376D01*
X128190655Y-99517218D01*
X128244631Y-99598000D01*
X128263585Y-99693288D01*
X128244631Y-99788576D01*
X128190655Y-99869358D01*
X128109873Y-99923334D01*
X128092908Y-99929649D01*
X127985667Y-99965185D01*
X127836346Y-100057286D01*
X127712286Y-100181346D01*
X127620184Y-100330668D01*
X127565002Y-100497197D01*
X127565001Y-100497204D01*
X127554500Y-100599988D01*
X127554500Y-103360006D01*
X127565001Y-103462800D01*
X127620185Y-103629332D01*
X127711929Y-103778075D01*
X127712288Y-103778656D01*
X127836344Y-103902712D01*
X127985666Y-103994814D01*
X127985669Y-103994815D01*
X127985667Y-103994815D01*
X128122025Y-104039999D01*
X128152203Y-104049999D01*
X128254991Y-104060500D01*
X131955008Y-104060499D01*
X132057797Y-104049999D01*
X132224334Y-103994814D01*
X132373656Y-103902712D01*
X132497712Y-103778656D01*
X132589814Y-103629334D01*
X132644999Y-103462797D01*
X132655500Y-103360009D01*
X132655500Y-102979500D01*
X132674454Y-102884212D01*
X132728430Y-102803430D01*
X132809212Y-102749454D01*
X132904500Y-102730500D01*
X157735993Y-102730500D01*
X157831281Y-102749454D01*
X157912062Y-102803430D01*
X158544787Y-103436154D01*
X158598764Y-103516936D01*
X158617718Y-103612224D01*
X158617718Y-103631825D01*
X158609500Y-103683713D01*
X158609500Y-103896287D01*
X158617718Y-103948173D01*
X158617718Y-103967773D01*
X158611990Y-103996564D01*
X158610838Y-104025903D01*
X158602601Y-104043768D01*
X158598764Y-104063061D01*
X158582453Y-104087472D01*
X158570162Y-104114133D01*
X158544788Y-104143843D01*
X154958529Y-107730103D01*
X151397048Y-111291584D01*
X151380494Y-111316360D01*
X151314919Y-111414500D01*
X151314913Y-111414510D01*
X151258341Y-111551088D01*
X151229500Y-111696079D01*
X151229500Y-117095500D01*
X151210546Y-117190788D01*
X151156570Y-117271570D01*
X151075788Y-117325546D01*
X150980501Y-117344500D01*
X150599993Y-117344500D01*
X150497199Y-117355001D01*
X150330667Y-117410185D01*
X150181346Y-117502286D01*
X150057286Y-117626346D01*
X149965185Y-117775667D01*
X149929649Y-117882908D01*
X149881684Y-117967397D01*
X149805038Y-118027100D01*
X149711379Y-118052927D01*
X149614965Y-118040946D01*
X149530476Y-117992981D01*
X149517218Y-117980655D01*
X149394376Y-117857813D01*
X149178076Y-117691839D01*
X149178061Y-117691829D01*
X148941930Y-117555500D01*
X148941926Y-117555498D01*
X148690029Y-117451159D01*
X148426654Y-117380588D01*
X148270000Y-117359964D01*
X148270000Y-119078519D01*
X148267936Y-119077665D01*
X148103718Y-119045000D01*
X147936282Y-119045000D01*
X147772064Y-119077665D01*
X147770000Y-119078519D01*
X147770000Y-117359964D01*
X147613345Y-117380588D01*
X147349970Y-117451159D01*
X147098073Y-117555498D01*
X147098069Y-117555500D01*
X146861938Y-117691829D01*
X146861923Y-117691839D01*
X146645623Y-117857813D01*
X146452813Y-118050623D01*
X146286839Y-118266923D01*
X146286829Y-118266938D01*
X146150500Y-118503069D01*
X146150498Y-118503073D01*
X146046159Y-118754969D01*
X145975588Y-119018346D01*
X145940000Y-119288670D01*
X145940000Y-119644999D01*
X145940001Y-119645000D01*
X147203520Y-119645000D01*
X147202665Y-119647064D01*
X147170000Y-119811282D01*
X147170000Y-119978718D01*
X147202665Y-120142936D01*
X147203520Y-120145000D01*
X145940001Y-120145000D01*
X145940000Y-120145001D01*
X145940000Y-120501329D01*
X145975588Y-120771653D01*
X146046159Y-121035030D01*
X146150498Y-121286926D01*
X146150500Y-121286930D01*
X146286829Y-121523061D01*
X146286839Y-121523076D01*
X146452813Y-121739376D01*
X146645623Y-121932186D01*
X146861923Y-122098160D01*
X146861938Y-122098170D01*
X147098069Y-122234499D01*
X147098073Y-122234501D01*
X147349969Y-122338840D01*
X147613346Y-122409411D01*
X147770000Y-122430034D01*
X147770000Y-120711480D01*
X147772064Y-120712335D01*
X147936282Y-120745000D01*
X148103718Y-120745000D01*
X148267936Y-120712335D01*
X148270000Y-120711480D01*
X148270000Y-122430033D01*
X148426653Y-122409411D01*
X148690030Y-122338840D01*
X148941926Y-122234501D01*
X148941930Y-122234499D01*
X149178061Y-122098170D01*
X149178076Y-122098160D01*
X149394377Y-121932186D01*
X149517218Y-121809345D01*
X149597999Y-121755368D01*
X149693287Y-121736414D01*
X149788575Y-121755368D01*
X149869357Y-121809344D01*
X149923334Y-121890125D01*
X149929649Y-121907092D01*
X149965184Y-122014331D01*
X149965186Y-122014334D01*
X150057288Y-122163656D01*
X150181344Y-122287712D01*
X150330666Y-122379814D01*
X150330669Y-122379815D01*
X150330667Y-122379815D01*
X150482220Y-122430034D01*
X150497203Y-122434999D01*
X150599991Y-122445500D01*
X153360008Y-122445499D01*
X153462797Y-122434999D01*
X153629334Y-122379814D01*
X153778656Y-122287712D01*
X153902712Y-122163656D01*
X153994814Y-122014334D01*
X154049999Y-121847797D01*
X154060500Y-121745009D01*
X154060500Y-120894500D01*
X154079454Y-120799212D01*
X154133430Y-120718430D01*
X154214212Y-120664454D01*
X154309500Y-120645500D01*
X166178919Y-120645500D01*
X166178919Y-120645499D01*
X166323913Y-120616658D01*
X166410039Y-120580983D01*
X166460491Y-120560086D01*
X166460492Y-120560085D01*
X166460495Y-120560084D01*
X166509729Y-120527186D01*
X166583416Y-120477952D01*
X173074433Y-113986934D01*
X173155212Y-113932961D01*
X173250500Y-113914007D01*
X173345788Y-113932961D01*
X173426570Y-113986937D01*
X173480546Y-114067719D01*
X173499500Y-114163007D01*
X173499500Y-119993888D01*
X173499200Y-120006106D01*
X173483249Y-120330792D01*
X173480854Y-120355110D01*
X173434053Y-120670617D01*
X173429286Y-120694583D01*
X173351784Y-121003989D01*
X173344690Y-121027373D01*
X173237236Y-121327684D01*
X173227885Y-121350259D01*
X173091515Y-121638589D01*
X173079997Y-121660139D01*
X172916017Y-121933725D01*
X172902440Y-121954044D01*
X172712435Y-122210235D01*
X172696934Y-122229123D01*
X172482735Y-122465456D01*
X172465456Y-122482735D01*
X172229123Y-122696934D01*
X172210235Y-122712435D01*
X171954044Y-122902440D01*
X171933725Y-122916017D01*
X171660139Y-123079997D01*
X171638589Y-123091515D01*
X171350259Y-123227885D01*
X171327684Y-123237236D01*
X171027373Y-123344690D01*
X171003989Y-123351784D01*
X170694583Y-123429286D01*
X170670617Y-123434053D01*
X170355110Y-123480854D01*
X170330792Y-123483249D01*
X170006107Y-123499200D01*
X169993889Y-123499500D01*
X130006111Y-123499500D01*
X129993893Y-123499200D01*
X129669207Y-123483249D01*
X129644889Y-123480854D01*
X129329382Y-123434053D01*
X129305416Y-123429286D01*
X128996010Y-123351784D01*
X128972626Y-123344690D01*
X128672315Y-123237236D01*
X128649740Y-123227885D01*
X128361410Y-123091515D01*
X128339860Y-123079997D01*
X128203673Y-122998370D01*
X128066268Y-122916013D01*
X128045955Y-122902440D01*
X127789764Y-122712435D01*
X127770876Y-122696934D01*
X127534534Y-122482726D01*
X127517273Y-122465465D01*
X127303063Y-122229121D01*
X127287564Y-122210235D01*
X127191034Y-122080080D01*
X127097554Y-121954037D01*
X127083989Y-121933735D01*
X126920001Y-121660138D01*
X126908484Y-121638589D01*
X126772114Y-121350259D01*
X126762763Y-121327684D01*
X126748181Y-121286930D01*
X126655305Y-121027360D01*
X126648219Y-121004002D01*
X126570710Y-120694568D01*
X126565949Y-120670633D01*
X126519143Y-120355095D01*
X126516751Y-120330804D01*
X126500799Y-120006106D01*
X126500500Y-119993888D01*
X126500500Y-110929386D01*
X134025498Y-110929386D01*
X134025498Y-111087079D01*
X134056259Y-111241725D01*
X134056261Y-111241730D01*
X134116601Y-111387406D01*
X134116606Y-111387415D01*
X134183533Y-111487578D01*
X134220713Y-111577338D01*
X134225498Y-111625916D01*
X134225498Y-113140549D01*
X134206544Y-113235837D01*
X134183534Y-113278886D01*
X134116605Y-113379052D01*
X134116601Y-113379059D01*
X134056261Y-113524735D01*
X134056259Y-113524740D01*
X134025498Y-113679386D01*
X134025498Y-113837079D01*
X134056259Y-113991725D01*
X134056261Y-113991730D01*
X134116601Y-114137406D01*
X134116604Y-114137413D01*
X134180806Y-114233497D01*
X134204209Y-114268522D01*
X134315709Y-114380022D01*
X134315712Y-114380024D01*
X134446817Y-114467626D01*
X134446818Y-114467626D01*
X134446819Y-114467627D01*
X134592501Y-114527970D01*
X134592503Y-114527970D01*
X134592505Y-114527971D01*
X134743146Y-114557935D01*
X134747156Y-114558733D01*
X134904840Y-114558733D01*
X135059495Y-114527970D01*
X135205177Y-114467627D01*
X135336287Y-114380022D01*
X135447787Y-114268522D01*
X135535392Y-114137412D01*
X135595735Y-113991730D01*
X135609774Y-113921153D01*
X136449500Y-113921153D01*
X136449500Y-114078846D01*
X136480261Y-114233492D01*
X136480263Y-114233497D01*
X136540603Y-114379173D01*
X136540609Y-114379185D01*
X136612424Y-114486664D01*
X136649604Y-114576423D01*
X136649603Y-114673578D01*
X136612424Y-114763336D01*
X136540609Y-114870814D01*
X136540603Y-114870826D01*
X136480263Y-115016502D01*
X136480261Y-115016507D01*
X136449500Y-115171153D01*
X136449500Y-115328846D01*
X136480261Y-115483492D01*
X136480263Y-115483497D01*
X136540603Y-115629173D01*
X136540606Y-115629180D01*
X136628208Y-115760285D01*
X136628211Y-115760289D01*
X136739711Y-115871789D01*
X136739714Y-115871791D01*
X136870819Y-115959393D01*
X136870820Y-115959393D01*
X136870821Y-115959394D01*
X137016503Y-116019737D01*
X137016505Y-116019737D01*
X137016507Y-116019738D01*
X137134658Y-116043240D01*
X137224417Y-116080419D01*
X137262150Y-116111385D01*
X137370478Y-116219713D01*
X137370480Y-116219716D01*
X137482284Y-116331520D01*
X137619216Y-116410577D01*
X137731019Y-116440534D01*
X137771942Y-116451500D01*
X137771943Y-116451500D01*
X144304666Y-116451500D01*
X144304682Y-116451501D01*
X144319943Y-116451501D01*
X144478056Y-116451501D01*
X144478057Y-116451501D01*
X144630785Y-116410577D01*
X144680904Y-116381639D01*
X144767716Y-116331520D01*
X144879520Y-116219716D01*
X144879521Y-116219713D01*
X145625805Y-115473430D01*
X145706586Y-115419454D01*
X145801874Y-115400500D01*
X145828842Y-115400500D01*
X145983497Y-115369737D01*
X146129179Y-115309394D01*
X146260289Y-115221789D01*
X146371789Y-115110289D01*
X146459394Y-114979179D01*
X146519737Y-114833497D01*
X146550500Y-114678842D01*
X146550500Y-114521158D01*
X146539852Y-114467626D01*
X146519738Y-114366507D01*
X146519737Y-114366505D01*
X146519737Y-114366503D01*
X146459394Y-114220821D01*
X146459393Y-114220820D01*
X146459392Y-114220817D01*
X146420764Y-114163007D01*
X146404279Y-114138335D01*
X146367100Y-114048579D01*
X146367099Y-113951424D01*
X146404276Y-113861668D01*
X146459394Y-113779179D01*
X146519737Y-113633497D01*
X146550500Y-113478842D01*
X146550500Y-113321158D01*
X146534069Y-113238556D01*
X146519738Y-113166507D01*
X146519737Y-113166505D01*
X146519737Y-113166503D01*
X146459394Y-113020821D01*
X146412917Y-112951264D01*
X146371791Y-112889714D01*
X146371789Y-112889711D01*
X146260289Y-112778211D01*
X146242767Y-112766503D01*
X146129180Y-112690606D01*
X146129173Y-112690603D01*
X145983497Y-112630263D01*
X145983492Y-112630261D01*
X145828846Y-112599500D01*
X145828842Y-112599500D01*
X145671158Y-112599500D01*
X145671153Y-112599500D01*
X145516507Y-112630261D01*
X145516506Y-112630261D01*
X145419250Y-112670546D01*
X145323962Y-112689499D01*
X145228674Y-112670544D01*
X145166001Y-112632979D01*
X145161055Y-112628920D01*
X145029943Y-112541313D01*
X145029936Y-112541310D01*
X144884260Y-112480970D01*
X144884257Y-112480969D01*
X144766103Y-112457466D01*
X144743447Y-112448081D01*
X144719394Y-112443297D01*
X144699000Y-112429670D01*
X144676344Y-112420286D01*
X144638612Y-112389321D01*
X144574167Y-112324876D01*
X144520191Y-112244094D01*
X144501237Y-112148806D01*
X144520191Y-112053518D01*
X144574167Y-111972736D01*
X144645595Y-111925009D01*
X144645124Y-111924128D01*
X144654077Y-111919342D01*
X144654945Y-111918762D01*
X144655912Y-111918362D01*
X144787022Y-111830757D01*
X144898522Y-111719257D01*
X144986127Y-111588147D01*
X145046470Y-111442465D01*
X145077233Y-111287810D01*
X145077233Y-111130126D01*
X145068669Y-111087074D01*
X145046471Y-110975475D01*
X145046470Y-110975473D01*
X145046470Y-110975471D01*
X144986127Y-110829789D01*
X144949344Y-110774740D01*
X144898524Y-110698682D01*
X144898522Y-110698679D01*
X144787022Y-110587179D01*
X144787018Y-110587176D01*
X144655913Y-110499574D01*
X144655906Y-110499571D01*
X144510230Y-110439231D01*
X144510225Y-110439229D01*
X144392076Y-110415728D01*
X144302316Y-110378549D01*
X144264584Y-110347583D01*
X142315978Y-108398978D01*
X142306519Y-108389519D01*
X142306518Y-108389517D01*
X142194714Y-108277713D01*
X142107902Y-108227593D01*
X142091219Y-108217961D01*
X142091217Y-108217959D01*
X142057782Y-108198655D01*
X142057779Y-108198654D01*
X141905055Y-108157732D01*
X141746941Y-108157732D01*
X141731680Y-108157732D01*
X141731664Y-108157733D01*
X139494612Y-108157733D01*
X139399324Y-108138779D01*
X139318542Y-108084803D01*
X139264568Y-108004024D01*
X139209394Y-107870821D01*
X139121789Y-107739711D01*
X139010289Y-107628211D01*
X139010285Y-107628208D01*
X138879180Y-107540606D01*
X138879173Y-107540603D01*
X138733497Y-107480263D01*
X138733492Y-107480261D01*
X138578846Y-107449500D01*
X138578842Y-107449500D01*
X138421158Y-107449500D01*
X138421153Y-107449500D01*
X138266507Y-107480261D01*
X138266502Y-107480263D01*
X138120826Y-107540603D01*
X138120819Y-107540606D01*
X137989714Y-107628208D01*
X137878208Y-107739714D01*
X137790606Y-107870819D01*
X137790603Y-107870826D01*
X137730263Y-108016502D01*
X137730261Y-108016507D01*
X137699500Y-108171153D01*
X137699500Y-108328846D01*
X137730261Y-108483492D01*
X137730263Y-108483497D01*
X137790603Y-108629173D01*
X137790606Y-108629180D01*
X137833203Y-108692930D01*
X137878211Y-108760289D01*
X137989711Y-108871789D01*
X137989714Y-108871791D01*
X138120819Y-108959393D01*
X138120820Y-108959393D01*
X138120821Y-108959394D01*
X138266503Y-109019737D01*
X138266505Y-109019737D01*
X138266507Y-109019738D01*
X138384658Y-109043240D01*
X138395799Y-109047854D01*
X138407804Y-109049009D01*
X138428604Y-109061442D01*
X138474417Y-109080419D01*
X138493594Y-109094607D01*
X138503298Y-109102533D01*
X138527711Y-109126946D01*
X138527713Y-109126949D01*
X138639517Y-109238753D01*
X138726328Y-109288872D01*
X138776448Y-109317810D01*
X138929176Y-109358734D01*
X139102551Y-109358734D01*
X139102567Y-109358733D01*
X140641706Y-109358733D01*
X140736994Y-109377687D01*
X140817776Y-109431663D01*
X140871752Y-109512445D01*
X140890706Y-109607733D01*
X140871752Y-109703021D01*
X140817778Y-109783799D01*
X140774207Y-109827371D01*
X140750761Y-109850817D01*
X140663159Y-109981922D01*
X140663156Y-109981929D01*
X140602816Y-110127605D01*
X140602814Y-110127610D01*
X140572053Y-110282256D01*
X140572053Y-110439949D01*
X140602814Y-110594595D01*
X140602816Y-110594600D01*
X140663156Y-110740276D01*
X140663158Y-110740279D01*
X140663159Y-110740282D01*
X140722964Y-110829787D01*
X140730088Y-110840448D01*
X140767268Y-110930208D01*
X140772053Y-110978786D01*
X140772053Y-112382316D01*
X140753099Y-112477604D01*
X140753099Y-112477605D01*
X140743714Y-112500261D01*
X140663159Y-112620821D01*
X140602816Y-112766503D01*
X140574529Y-112908708D01*
X140565143Y-112931369D01*
X140551517Y-112951760D01*
X140542132Y-112974419D01*
X140511167Y-113012149D01*
X140196749Y-113326569D01*
X140115968Y-113380546D01*
X140020680Y-113399500D01*
X137867684Y-113399500D01*
X137772396Y-113380546D01*
X137729347Y-113357536D01*
X137629180Y-113290607D01*
X137629179Y-113290606D01*
X137629176Y-113290604D01*
X137629173Y-113290603D01*
X137483497Y-113230263D01*
X137483492Y-113230261D01*
X137328846Y-113199500D01*
X137328842Y-113199500D01*
X137171158Y-113199500D01*
X137171153Y-113199500D01*
X137016507Y-113230261D01*
X137016502Y-113230263D01*
X136870826Y-113290603D01*
X136870819Y-113290606D01*
X136739714Y-113378208D01*
X136628208Y-113489714D01*
X136540606Y-113620819D01*
X136540603Y-113620826D01*
X136480263Y-113766502D01*
X136480261Y-113766507D01*
X136449500Y-113921153D01*
X135609774Y-113921153D01*
X135626498Y-113837075D01*
X135626498Y-113679391D01*
X135595735Y-113524736D01*
X135535392Y-113379054D01*
X135468462Y-113278886D01*
X135431282Y-113189126D01*
X135426498Y-113140549D01*
X135426498Y-111625916D01*
X135445452Y-111530628D01*
X135468463Y-111487578D01*
X135535392Y-111387412D01*
X135595735Y-111241730D01*
X135626498Y-111087075D01*
X135626498Y-110929391D01*
X135606686Y-110829789D01*
X135595736Y-110774740D01*
X135595735Y-110774738D01*
X135595735Y-110774736D01*
X135535392Y-110629054D01*
X135447787Y-110497944D01*
X135336287Y-110386444D01*
X135336283Y-110386441D01*
X135205178Y-110298839D01*
X135205171Y-110298836D01*
X135059495Y-110238496D01*
X135059490Y-110238494D01*
X134904844Y-110207733D01*
X134904840Y-110207733D01*
X134747156Y-110207733D01*
X134747151Y-110207733D01*
X134592505Y-110238494D01*
X134592500Y-110238496D01*
X134446824Y-110298836D01*
X134446817Y-110298839D01*
X134315712Y-110386441D01*
X134204206Y-110497947D01*
X134116604Y-110629052D01*
X134116601Y-110629059D01*
X134056261Y-110774735D01*
X134056259Y-110774740D01*
X134025498Y-110929386D01*
X126500500Y-110929386D01*
X126500500Y-86381912D01*
X129499500Y-86381912D01*
X129499500Y-86618087D01*
X129499501Y-86618103D01*
X129536446Y-86851362D01*
X129536447Y-86851368D01*
X129609432Y-87075992D01*
X129651079Y-87157728D01*
X129716659Y-87286437D01*
X129855478Y-87477504D01*
X129855480Y-87477506D01*
X129855483Y-87477510D01*
X130022490Y-87644517D01*
X130022493Y-87644519D01*
X130022495Y-87644521D01*
X130213562Y-87783340D01*
X130213564Y-87783341D01*
X130213567Y-87783343D01*
X130424008Y-87890568D01*
X130648632Y-87963553D01*
X130881908Y-88000500D01*
X130881912Y-88000500D01*
X131118088Y-88000500D01*
X131118092Y-88000500D01*
X131351368Y-87963553D01*
X131575992Y-87890568D01*
X131786433Y-87783343D01*
X131977510Y-87644517D01*
X132144517Y-87477510D01*
X132283343Y-87286433D01*
X132390568Y-87075992D01*
X132463553Y-86851368D01*
X132500500Y-86618092D01*
X132500500Y-86381908D01*
X132463553Y-86148632D01*
X132390568Y-85924008D01*
X132283343Y-85713567D01*
X132283341Y-85713564D01*
X132283340Y-85713562D01*
X132144521Y-85522495D01*
X132144519Y-85522493D01*
X132144517Y-85522490D01*
X131977510Y-85355483D01*
X131977506Y-85355480D01*
X131977504Y-85355478D01*
X131786437Y-85216659D01*
X131772747Y-85209683D01*
X131575992Y-85109432D01*
X131575989Y-85109431D01*
X131575987Y-85109430D01*
X131451079Y-85068845D01*
X131351368Y-85036447D01*
X131351366Y-85036446D01*
X131351364Y-85036446D01*
X131118103Y-84999501D01*
X131118094Y-84999500D01*
X131118092Y-84999500D01*
X130881908Y-84999500D01*
X130881905Y-84999500D01*
X130881896Y-84999501D01*
X130648635Y-85036446D01*
X130424012Y-85109430D01*
X130213562Y-85216659D01*
X130022495Y-85355478D01*
X129855478Y-85522495D01*
X129716659Y-85713562D01*
X129609430Y-85924012D01*
X129536446Y-86148635D01*
X129499501Y-86381896D01*
X129499500Y-86381912D01*
X126500500Y-86381912D01*
X126500500Y-81881951D01*
X129500000Y-81881951D01*
X129500000Y-82118048D01*
X129500001Y-82118063D01*
X129536934Y-82351247D01*
X129609893Y-82575795D01*
X129717088Y-82786176D01*
X129777339Y-82869105D01*
X130476211Y-82170232D01*
X130487482Y-82212292D01*
X130559890Y-82337708D01*
X130662292Y-82440110D01*
X130787708Y-82512518D01*
X130829764Y-82523787D01*
X130130893Y-83222659D01*
X130213823Y-83282911D01*
X130424204Y-83390106D01*
X130648752Y-83463065D01*
X130881936Y-83499998D01*
X130881951Y-83500000D01*
X131118049Y-83500000D01*
X131118063Y-83499998D01*
X131351247Y-83463065D01*
X131575795Y-83390106D01*
X131786177Y-83282910D01*
X131869105Y-83222659D01*
X131170233Y-82523787D01*
X131212292Y-82512518D01*
X131337708Y-82440110D01*
X131440110Y-82337708D01*
X131512518Y-82212292D01*
X131523787Y-82170233D01*
X132222659Y-82869105D01*
X132282910Y-82786177D01*
X132390106Y-82575795D01*
X132463065Y-82351247D01*
X132499998Y-82118063D01*
X132500000Y-82118048D01*
X132500000Y-81881951D01*
X136000000Y-81881951D01*
X136000000Y-82118048D01*
X136000001Y-82118063D01*
X136036934Y-82351247D01*
X136109893Y-82575795D01*
X136217088Y-82786176D01*
X136277339Y-82869105D01*
X136976211Y-82170232D01*
X136987482Y-82212292D01*
X137059890Y-82337708D01*
X137162292Y-82440110D01*
X137287708Y-82512518D01*
X137329764Y-82523787D01*
X136630893Y-83222659D01*
X136713823Y-83282911D01*
X136924204Y-83390106D01*
X137148752Y-83463065D01*
X137381936Y-83499998D01*
X137381951Y-83500000D01*
X137618049Y-83500000D01*
X137618063Y-83499998D01*
X137851247Y-83463065D01*
X138075795Y-83390106D01*
X138286177Y-83282910D01*
X138369105Y-83222659D01*
X137670233Y-82523787D01*
X137712292Y-82512518D01*
X137837708Y-82440110D01*
X137940110Y-82337708D01*
X138012518Y-82212292D01*
X138023787Y-82170233D01*
X138722659Y-82869105D01*
X138782910Y-82786177D01*
X138890106Y-82575795D01*
X138963065Y-82351247D01*
X138999998Y-82118063D01*
X139000000Y-82118048D01*
X139000000Y-81881951D01*
X138999998Y-81881936D01*
X138963065Y-81648752D01*
X138890106Y-81424204D01*
X138782911Y-81213823D01*
X138722659Y-81130893D01*
X138023787Y-81829764D01*
X138012518Y-81787708D01*
X137940110Y-81662292D01*
X137837708Y-81559890D01*
X137712292Y-81487482D01*
X137670232Y-81476211D01*
X138369105Y-80777339D01*
X138286176Y-80717088D01*
X138075795Y-80609893D01*
X137851247Y-80536934D01*
X137618063Y-80500001D01*
X137618049Y-80500000D01*
X137381951Y-80500000D01*
X137381936Y-80500001D01*
X137148752Y-80536934D01*
X136924204Y-80609894D01*
X136924199Y-80609896D01*
X136713833Y-80717082D01*
X136630894Y-80777340D01*
X137329766Y-81476212D01*
X137287708Y-81487482D01*
X137162292Y-81559890D01*
X137059890Y-81662292D01*
X136987482Y-81787708D01*
X136976212Y-81829766D01*
X136277340Y-81130894D01*
X136217082Y-81213833D01*
X136109896Y-81424199D01*
X136109894Y-81424204D01*
X136036934Y-81648752D01*
X136000001Y-81881936D01*
X136000000Y-81881951D01*
X132500000Y-81881951D01*
X132499998Y-81881936D01*
X132463065Y-81648752D01*
X132390106Y-81424204D01*
X132282911Y-81213823D01*
X132222659Y-81130893D01*
X131523787Y-81829764D01*
X131512518Y-81787708D01*
X131440110Y-81662292D01*
X131337708Y-81559890D01*
X131212292Y-81487482D01*
X131170232Y-81476211D01*
X131869105Y-80777339D01*
X131786176Y-80717088D01*
X131575795Y-80609893D01*
X131351247Y-80536934D01*
X131118063Y-80500001D01*
X131118049Y-80500000D01*
X130881951Y-80500000D01*
X130881936Y-80500001D01*
X130648752Y-80536934D01*
X130424204Y-80609894D01*
X130424199Y-80609896D01*
X130213833Y-80717082D01*
X130130894Y-80777340D01*
X130829766Y-81476212D01*
X130787708Y-81487482D01*
X130662292Y-81559890D01*
X130559890Y-81662292D01*
X130487482Y-81787708D01*
X130476212Y-81829766D01*
X129777340Y-81130894D01*
X129717082Y-81213833D01*
X129609896Y-81424199D01*
X129609894Y-81424204D01*
X129536934Y-81648752D01*
X129500001Y-81881936D01*
X129500000Y-81881951D01*
X126500500Y-81881951D01*
X126500500Y-80006111D01*
X126500800Y-79993894D01*
X126515121Y-79702374D01*
X126516751Y-79669191D01*
X126519143Y-79644906D01*
X126565949Y-79329362D01*
X126570709Y-79305435D01*
X126648220Y-78995991D01*
X126655303Y-78972644D01*
X126762766Y-78672306D01*
X126772110Y-78649748D01*
X126908489Y-78361400D01*
X126919996Y-78339870D01*
X127083995Y-78066254D01*
X127097547Y-78045971D01*
X127287571Y-77789754D01*
X127303055Y-77770888D01*
X127517282Y-77534524D01*
X127534524Y-77517282D01*
X127770888Y-77303055D01*
X127789754Y-77287571D01*
X128045971Y-77097547D01*
X128066254Y-77083995D01*
X128339870Y-76919996D01*
X128361400Y-76908489D01*
X128649748Y-76772110D01*
X128672306Y-76762766D01*
X128972644Y-76655303D01*
X128995991Y-76648220D01*
X129305435Y-76570709D01*
X129329362Y-76565949D01*
X129644906Y-76519143D01*
X129669193Y-76516751D01*
X129979950Y-76501484D01*
X129993894Y-76500800D01*
X130006111Y-76500500D01*
X130065892Y-76500500D01*
X169934108Y-76500500D01*
X169993889Y-76500500D01*
X170006106Y-76500800D01*
G37*
%TD.AperFunction*%
%TD*%
M02*
