%TF.GenerationSoftware,KiCad,Pcbnew,9.0.3*%
%TF.CreationDate,2025-08-18T23:52:33+02:00*%
%TF.ProjectId,main,6d61696e-2e6b-4696-9361-645f70636258,1.0*%
%TF.SameCoordinates,Original*%
%TF.FileFunction,Soldermask,Top*%
%TF.FilePolarity,Negative*%
%FSLAX46Y46*%
G04 Gerber Fmt 4.6, Leading zero omitted, Abs format (unit mm)*
G04 Created by KiCad (PCBNEW 9.0.3) date 2025-08-18 23:52:33*
%MOMM*%
%LPD*%
G01*
G04 APERTURE LIST*
G04 Aperture macros list*
%AMRoundRect*
0 Rectangle with rounded corners*
0 $1 Rounding radius*
0 $2 $3 $4 $5 $6 $7 $8 $9 X,Y pos of 4 corners*
0 Add a 4 corners polygon primitive as box body*
4,1,4,$2,$3,$4,$5,$6,$7,$8,$9,$2,$3,0*
0 Add four circle primitives for the rounded corners*
1,1,$1+$1,$2,$3*
1,1,$1+$1,$4,$5*
1,1,$1+$1,$6,$7*
1,1,$1+$1,$8,$9*
0 Add four rect primitives between the rounded corners*
20,1,$1+$1,$2,$3,$4,$5,0*
20,1,$1+$1,$4,$5,$6,$7,0*
20,1,$1+$1,$6,$7,$8,$9,0*
20,1,$1+$1,$8,$9,$2,$3,0*%
G04 Aperture macros list end*
%ADD10RoundRect,0.250000X1.330000X1.800000X-1.330000X1.800000X-1.330000X-1.800000X1.330000X-1.800000X0*%
%ADD11O,3.160000X4.100000*%
%ADD12RoundRect,0.250000X-1.330000X-1.800000X1.330000X-1.800000X1.330000X1.800000X-1.330000X1.800000X0*%
%ADD13RoundRect,0.237500X0.300000X0.237500X-0.300000X0.237500X-0.300000X-0.237500X0.300000X-0.237500X0*%
%ADD14RoundRect,0.237500X0.250000X0.237500X-0.250000X0.237500X-0.250000X-0.237500X0.250000X-0.237500X0*%
%ADD15RoundRect,0.237500X0.237500X-0.300000X0.237500X0.300000X-0.237500X0.300000X-0.237500X-0.300000X0*%
%ADD16C,2.000000*%
%ADD17RoundRect,0.237500X0.237500X-0.250000X0.237500X0.250000X-0.237500X0.250000X-0.237500X-0.250000X0*%
%ADD18R,1.700000X1.700000*%
%ADD19C,1.700000*%
%ADD20RoundRect,0.237500X-0.237500X0.300000X-0.237500X-0.300000X0.237500X-0.300000X0.237500X0.300000X0*%
%ADD21RoundRect,0.250000X1.800000X-1.330000X1.800000X1.330000X-1.800000X1.330000X-1.800000X-1.330000X0*%
%ADD22O,4.100000X3.160000*%
%ADD23RoundRect,0.237500X-0.300000X-0.237500X0.300000X-0.237500X0.300000X0.237500X-0.300000X0.237500X0*%
%ADD24RoundRect,0.050000X0.350000X0.050000X-0.350000X0.050000X-0.350000X-0.050000X0.350000X-0.050000X0*%
%ADD25RoundRect,0.050000X0.050000X-0.350000X0.050000X0.350000X-0.050000X0.350000X-0.050000X-0.350000X0*%
%ADD26RoundRect,0.050000X-0.350000X-0.050000X0.350000X-0.050000X0.350000X0.050000X-0.350000X0.050000X0*%
%ADD27R,1.750000X1.750000*%
%ADD28RoundRect,0.250000X-1.800000X1.330000X-1.800000X-1.330000X1.800000X-1.330000X1.800000X1.330000X0*%
%ADD29RoundRect,0.075000X-0.700000X-0.075000X0.700000X-0.075000X0.700000X0.075000X-0.700000X0.075000X0*%
%ADD30RoundRect,0.075000X-0.075000X-0.700000X0.075000X-0.700000X0.075000X0.700000X-0.075000X0.700000X0*%
%ADD31RoundRect,0.237500X-0.250000X-0.237500X0.250000X-0.237500X0.250000X0.237500X-0.250000X0.237500X0*%
%ADD32RoundRect,0.237500X-0.287500X-0.237500X0.287500X-0.237500X0.287500X0.237500X-0.287500X0.237500X0*%
%ADD33RoundRect,0.237500X-0.237500X0.250000X-0.237500X-0.250000X0.237500X-0.250000X0.237500X0.250000X0*%
%ADD34RoundRect,0.200000X0.250000X0.200000X-0.250000X0.200000X-0.250000X-0.200000X0.250000X-0.200000X0*%
G04 APERTURE END LIST*
D10*
%TO.C,J3*%
X151980000Y-119895000D03*
D11*
X148020000Y-119895000D03*
%TD*%
D12*
%TO.C,J1*%
X148020000Y-80105000D03*
D11*
X151980000Y-80105000D03*
%TD*%
D13*
%TO.C,C10*%
X152612500Y-109750000D03*
X150887500Y-109750000D03*
%TD*%
D14*
%TO.C,R4*%
X143738498Y-116758233D03*
X141913498Y-116758233D03*
%TD*%
D15*
%TO.C,C15*%
X130000000Y-93862500D03*
X130000000Y-92137500D03*
%TD*%
D13*
%TO.C,C11*%
X145612500Y-91500000D03*
X143887500Y-91500000D03*
%TD*%
D16*
%TO.C,SW1*%
X131000000Y-82000000D03*
X137500000Y-82000000D03*
X131000000Y-86500000D03*
X137500000Y-86500000D03*
%TD*%
D17*
%TO.C,R1*%
X132825998Y-118670733D03*
X132825998Y-116845733D03*
%TD*%
D18*
%TO.C,J5*%
X159960000Y-108870000D03*
D19*
X162500000Y-108870000D03*
X159960000Y-106330000D03*
X162500000Y-106330000D03*
X159960000Y-103790000D03*
X162500000Y-103790000D03*
X159960000Y-101250000D03*
X162500000Y-101250000D03*
X159960000Y-98710000D03*
X162500000Y-98710000D03*
X159960000Y-96170000D03*
X162500000Y-96170000D03*
X159960000Y-93630000D03*
X162500000Y-93630000D03*
X159960000Y-91090000D03*
X162500000Y-91090000D03*
%TD*%
D20*
%TO.C,C14*%
X136000000Y-92137500D03*
X136000000Y-93862500D03*
%TD*%
D21*
%TO.C,J4*%
X130105000Y-101980000D03*
D22*
X130105000Y-98020000D03*
%TD*%
D18*
%TO.C,J6*%
X158420000Y-83250000D03*
D19*
X160960000Y-83250000D03*
X163500000Y-83250000D03*
X166040000Y-83250000D03*
X168580000Y-83250000D03*
%TD*%
D23*
%TO.C,C1*%
X168887500Y-94000000D03*
X170612500Y-94000000D03*
%TD*%
D24*
%TO.C,U1*%
X137325998Y-110958233D03*
X137325998Y-111358233D03*
X137325998Y-111758233D03*
X137325998Y-112158233D03*
X137325998Y-112558233D03*
D25*
X138025998Y-113258233D03*
X138425998Y-113258233D03*
X138825998Y-113258233D03*
X139225998Y-113258233D03*
X139625998Y-113258233D03*
D26*
X140325998Y-112558233D03*
X140325998Y-112158233D03*
X140325998Y-111758233D03*
X140325998Y-111358233D03*
X140325998Y-110958233D03*
D25*
X139625998Y-110258233D03*
X139225998Y-110258233D03*
X138825998Y-110258233D03*
X138425998Y-110258233D03*
X138025998Y-110258233D03*
D27*
X138825998Y-111758233D03*
%TD*%
D28*
%TO.C,J2*%
X169895000Y-98000000D03*
D22*
X169895000Y-101960000D03*
%TD*%
D23*
%TO.C,C9*%
X147137500Y-111500000D03*
X148862500Y-111500000D03*
%TD*%
D29*
%TO.C,U2*%
X144325000Y-96250000D03*
X144325000Y-96750000D03*
X144325000Y-97250000D03*
X144325000Y-97750000D03*
X144325000Y-98250000D03*
X144325000Y-98750000D03*
X144325000Y-99250000D03*
X144325000Y-99750000D03*
X144325000Y-100250000D03*
X144325000Y-100750000D03*
X144325000Y-101250000D03*
X144325000Y-101750000D03*
X144325000Y-102250000D03*
X144325000Y-102750000D03*
X144325000Y-103250000D03*
X144325000Y-103750000D03*
D30*
X146250000Y-105675000D03*
X146750000Y-105675000D03*
X147250000Y-105675000D03*
X147750000Y-105675000D03*
X148250000Y-105675000D03*
X148750000Y-105675000D03*
X149250000Y-105675000D03*
X149750000Y-105675000D03*
X150250000Y-105675000D03*
X150750000Y-105675000D03*
X151250000Y-105675000D03*
X151750000Y-105675000D03*
X152250000Y-105675000D03*
X152750000Y-105675000D03*
X153250000Y-105675000D03*
X153750000Y-105675000D03*
D29*
X155675000Y-103750000D03*
X155675000Y-103250000D03*
X155675000Y-102750000D03*
X155675000Y-102250000D03*
X155675000Y-101750000D03*
X155675000Y-101250000D03*
X155675000Y-100750000D03*
X155675000Y-100250000D03*
X155675000Y-99750000D03*
X155675000Y-99250000D03*
X155675000Y-98750000D03*
X155675000Y-98250000D03*
X155675000Y-97750000D03*
X155675000Y-97250000D03*
X155675000Y-96750000D03*
X155675000Y-96250000D03*
D30*
X153750000Y-94325000D03*
X153250000Y-94325000D03*
X152750000Y-94325000D03*
X152250000Y-94325000D03*
X151750000Y-94325000D03*
X151250000Y-94325000D03*
X150750000Y-94325000D03*
X150250000Y-94325000D03*
X149750000Y-94325000D03*
X149250000Y-94325000D03*
X148750000Y-94325000D03*
X148250000Y-94325000D03*
X147750000Y-94325000D03*
X147250000Y-94325000D03*
X146750000Y-94325000D03*
X146250000Y-94325000D03*
%TD*%
D31*
%TO.C,R6*%
X137913498Y-116758233D03*
X139738498Y-116758233D03*
%TD*%
D13*
%TO.C,C3*%
X143688498Y-114758233D03*
X141963498Y-114758233D03*
%TD*%
%TO.C,C4*%
X148862500Y-109750000D03*
X147137500Y-109750000D03*
%TD*%
D14*
%TO.C,R5*%
X139738498Y-118758233D03*
X137913498Y-118758233D03*
%TD*%
D32*
%TO.C,L1*%
X137875000Y-106750000D03*
X139625000Y-106750000D03*
%TD*%
D15*
%TO.C,C6*%
X144250000Y-81862500D03*
X144250000Y-80137500D03*
%TD*%
D33*
%TO.C,R2*%
X132825998Y-112845733D03*
X132825998Y-114670733D03*
%TD*%
D17*
%TO.C,R3*%
X130825998Y-114670733D03*
X130825998Y-112845733D03*
%TD*%
D14*
%TO.C,R7*%
X145662500Y-89750000D03*
X143837500Y-89750000D03*
%TD*%
D23*
%TO.C,C5*%
X129887500Y-105750000D03*
X131612500Y-105750000D03*
%TD*%
%TO.C,C8*%
X143887500Y-87750000D03*
X145612500Y-87750000D03*
%TD*%
D34*
%TO.C,Y1*%
X133700000Y-92200000D03*
X132300000Y-92200000D03*
X132300000Y-93300000D03*
X133700000Y-93300000D03*
%TD*%
D20*
%TO.C,C7*%
X135825998Y-116895733D03*
X135825998Y-118620733D03*
%TD*%
D13*
%TO.C,C12*%
X155862500Y-91500000D03*
X154137500Y-91500000D03*
%TD*%
%TO.C,C13*%
X140862500Y-102000000D03*
X139137500Y-102000000D03*
%TD*%
D20*
%TO.C,C2*%
X155500000Y-118887500D03*
X155500000Y-120612500D03*
%TD*%
M02*
